<?xml version="1.0" encoding="UTF-8" standalone="no"?>
<!DOCTYPE svg PUBLIC "-//W3C//DTD SVG 1.1//EN"
 "http://www.w3.org/Graphics/SVG/1.1/DTD/svg11.dtd">
<!-- Generated by graphviz version 2.43.0 (0)
 -->
<!-- Title: navigation Pages: 1 -->
<svg width="372pt" height="46pt"
 viewBox="0.00 0.00 372.00 46.00" xmlns="http://www.w3.org/2000/svg" xmlns:xlink="http://www.w3.org/1999/xlink">
<g id="graph0" class="graph" transform="scale(1 1) rotate(0) translate(4 42)">
<title>navigation</title>
<polygon fill="white" stroke="transparent" points="-4,4 -4,-42 368,-42 368,4 -4,4"/>
<!-- A -->
<g id="node1" class="node">
<title>A</title>
<polygon fill="none" stroke="black" points="60,-37 0,-37 0,-1 60,-1 60,-37"/>
<text text-anchor="middle" x="30" y="-15.3" font-family="Times,serif" font-size="14.00">lexing</text>
</g>
<!-- B -->
<g id="node2" class="node">
<title>B</title>
<polygon fill="none" stroke="black" points="206,-38 96,-38 96,0 206,0 206,-38"/>
<text text-anchor="middle" x="151" y="-22.8" font-family="Times,serif" font-size="14.00">parsing</text>
<text text-anchor="middle" x="151" y="-7.8" font-family="Times,serif" font-size="14.00">BİRAZ DAHA</text>
</g>
<!-- A&#45;&gt;B -->
<g id="edge1" class="edge">
<title>A&#45;&gt;B</title>
<path fill="none" stroke="black" d="M60.11,-19C67.91,-19 76.66,-19 85.56,-19"/>
<polygon fill="black" stroke="black" points="85.63,-22.5 95.63,-19 85.63,-15.5 85.63,-22.5"/>
</g>
<!-- C -->
<g id="node3" class="node">
<title>C</title>
<polygon fill="none" stroke="black" points="364,-38 242,-38 242,0 364,0 364,-38"/>
<text text-anchor="middle" x="303" y="-22.8" font-family="Times,serif" font-size="14.00">evaluation</text>
<text text-anchor="middle" x="303" y="-7.8" font-family="Times,serif" font-size="14.00">BURADASINIZ</text>
</g>
<!-- B&#45;&gt;C -->
<g id="edge2" class="edge">
<title>B&#45;&gt;C</title>
<path fill="none" stroke="black" d="M206.15,-19C214.48,-19 223.17,-19 231.78,-19"/>
<polygon fill="black" stroke="black" points="231.83,-22.5 241.83,-19 231.83,-15.5 231.83,-22.5"/>
</g>
</g>
</svg>
