<?xml version="1.0" encoding="UTF-8" standalone="no"?>
<!DOCTYPE svg PUBLIC "-//W3C//DTD SVG 1.1//EN"
 "http://www.w3.org/Graphics/SVG/1.1/DTD/svg11.dtd">
<!-- Generated by graphviz version 2.43.0 (0)
 -->
<!-- Title: lexical_analysis Pages: 1 -->
<svg width="926pt" height="229pt"
 viewBox="0.00 0.00 926.00 229.00" xmlns="http://www.w3.org/2000/svg" xmlns:xlink="http://www.w3.org/1999/xlink">
<g id="graph0" class="graph" transform="scale(1 1) rotate(0) translate(4 225)">
<title>lexical_analysis</title>
<polygon fill="white" stroke="transparent" points="-4,4 -4,-225 922,-225 922,4 -4,4"/>
<!-- input -->
<g id="node1" class="node">
<title>input</title>
<text text-anchor="middle" x="132.5" y="-199.3" font-family="Times,serif" font-size="14.00">input</text>
</g>
<!-- lexemes -->
<g id="node3" class="node">
<title>lexemes</title>
<text text-anchor="middle" x="132.5" y="-112.3" font-family="Times,serif" font-size="14.00">lexemes</text>
</g>
<!-- input&#45;&gt;lexemes -->
<g id="edge14" class="edge">
<title>input&#45;&gt;lexemes</title>
<path fill="none" stroke="black" d="M132.5,-184.8C132.5,-173.16 132.5,-157.55 132.5,-144.24"/>
<polygon fill="black" stroke="black" points="136,-144.18 132.5,-134.18 129,-144.18 136,-144.18"/>
<text text-anchor="middle" x="151" y="-155.8" font-family="Times,serif" font-size="14.00">lexer</text>
</g>
<!-- input_str -->
<g id="node2" class="node">
<title>input_str</title>
<text text-anchor="start" x="533" y="-199.3" font-family="Times,serif" font-size="14.00">if (x==&#45;1)</text>
</g>
<!-- l1 -->
<g id="node4" class="node">
<title>l1</title>
<text text-anchor="start" x="239.5" y="-112.3" font-family="Times,serif" font-size="14.00">⟨ident, &quot;if&quot;⟩</text>
</g>
<!-- input_str&#45;&gt;l1 -->
<g id="edge1" class="edge">
<title>input_str&#45;&gt;l1</title>
<path fill="none" stroke="black" d="M524.87,-189.28C480.23,-176.25 408.59,-155.3 337.3,-134.23"/>
<polygon fill="black" stroke="black" points="338.28,-130.87 327.7,-131.39 336.29,-137.58 338.28,-130.87"/>
</g>
<!-- l2 -->
<g id="node5" class="node">
<title>l2</title>
<text text-anchor="start" x="354" y="-112.3" font-family="Times,serif" font-size="14.00">⟨punct, &quot;(&quot;⟩</text>
</g>
<!-- input_str&#45;&gt;l2 -->
<g id="edge3" class="edge">
<title>input_str&#45;&gt;l2</title>
<path fill="none" stroke="black" d="M533.09,-184.8C505.6,-171.45 467.33,-152.86 437.81,-138.52"/>
<polygon fill="black" stroke="black" points="439.09,-135.25 428.56,-134.03 436.03,-141.55 439.09,-135.25"/>
</g>
<!-- l3 -->
<g id="node6" class="node">
<title>l3</title>
<text text-anchor="start" x="467" y="-112.3" font-family="Times,serif" font-size="14.00">⟨ident, &quot;x&quot;⟩</text>
</g>
<!-- input_str&#45;&gt;l3 -->
<g id="edge5" class="edge">
<title>input_str&#45;&gt;l3</title>
<path fill="none" stroke="black" d="M555.95,-184.8C547.05,-172.59 534.94,-155.99 524.94,-142.28"/>
<polygon fill="black" stroke="black" points="527.75,-140.19 519.03,-134.18 522.09,-144.32 527.75,-140.19"/>
</g>
<!-- l4 -->
<g id="node7" class="node">
<title>l4</title>
<text text-anchor="start" x="580" y="-112.3" font-family="Times,serif" font-size="14.00">⟨punct, &quot;==&#45;&quot;⟩</text>
</g>
<!-- input_str&#45;&gt;l4 -->
<g id="edge7" class="edge">
<title>input_str&#45;&gt;l4</title>
<path fill="none" stroke="black" d="M581.25,-184.8C590.3,-172.59 602.6,-155.99 612.76,-142.28"/>
<polygon fill="black" stroke="black" points="615.63,-144.29 618.77,-134.18 610,-140.13 615.63,-144.29"/>
</g>
<!-- l5 -->
<g id="node8" class="node">
<title>l5</title>
<text text-anchor="start" x="725.5" y="-112.3" font-family="Times,serif" font-size="14.00">⟨int, &quot;1&quot;⟩</text>
</g>
<!-- input_str&#45;&gt;l5 -->
<g id="edge10" class="edge">
<title>input_str&#45;&gt;l5</title>
<path fill="none" stroke="black" d="M606.54,-184.8C636.33,-171.33 677.9,-152.54 709.72,-138.15"/>
<polygon fill="black" stroke="black" points="711.16,-141.34 718.83,-134.03 708.28,-134.96 711.16,-141.34"/>
</g>
<!-- l6 -->
<g id="node9" class="node">
<title>l6</title>
<text text-anchor="start" x="826" y="-112.3" font-family="Times,serif" font-size="14.00">⟨punct, &quot;)&quot;⟩</text>
</g>
<!-- input_str&#45;&gt;l6 -->
<g id="edge12" class="edge">
<title>input_str&#45;&gt;l6</title>
<path fill="none" stroke="black" d="M612,-189.55C663.94,-174.68 750.96,-149.78 808.3,-133.37"/>
<polygon fill="black" stroke="black" points="809.29,-136.73 817.94,-130.61 807.37,-130 809.29,-136.73"/>
</g>
<!-- ident_map -->
<g id="node10" class="node">
<title>ident_map</title>
<polygon fill="none" stroke="black" points="0,-0.5 0,-46.5 115,-46.5 115,-0.5 0,-0.5"/>
<text text-anchor="middle" x="41" y="-31.3" font-family="Times,serif" font-size="14.00">identifier</text>
<polyline fill="none" stroke="black" points="0,-23.5 82,-23.5 "/>
<text text-anchor="middle" x="41" y="-8.3" font-family="Times,serif" font-size="14.00">x</text>
<polyline fill="none" stroke="black" points="82,-0.5 82,-46.5 "/>
<text text-anchor="middle" x="98.5" y="-31.3" font-family="Times,serif" font-size="14.00">ID</text>
<polyline fill="none" stroke="black" points="82,-23.5 115,-23.5 "/>
<text text-anchor="middle" x="98.5" y="-8.3" font-family="Times,serif" font-size="14.00">0</text>
</g>
<!-- lexemes&#45;&gt;ident_map -->
<!-- tokens -->
<g id="node11" class="node">
<title>tokens</title>
<text text-anchor="middle" x="165.5" y="-19.8" font-family="Times,serif" font-size="14.00">tokens</text>
</g>
<!-- lexemes&#45;&gt;tokens -->
<g id="edge15" class="edge">
<title>lexemes&#45;&gt;tokens</title>
<path fill="none" stroke="black" d="M138.71,-97.98C143.47,-84.91 150.14,-66.63 155.63,-51.56"/>
<polygon fill="black" stroke="black" points="159.07,-52.35 159.21,-41.75 152.49,-49.95 159.07,-52.35"/>
<text text-anchor="middle" x="184" y="-68.8" font-family="Times,serif" font-size="14.00">tokenizer</text>
</g>
<!-- t1 -->
<g id="node12" class="node">
<title>t1</title>
<text text-anchor="start" x="266.5" y="-19.8" font-family="Times,serif" font-size="14.00">⟨IF⟩</text>
</g>
<!-- l1&#45;&gt;t1 -->
<g id="edge2" class="edge">
<title>l1&#45;&gt;t1</title>
<path fill="none" stroke="black" d="M279.5,-97.98C279.5,-85.04 279.5,-66.98 279.5,-52"/>
<polygon fill="black" stroke="black" points="283,-51.75 279.5,-41.75 276,-51.75 283,-51.75"/>
</g>
<!-- t2 -->
<g id="node13" class="node">
<title>t2</title>
<text text-anchor="start" x="345" y="-19.8" font-family="Times,serif" font-size="14.00">⟨LPAREN⟩</text>
</g>
<!-- l2&#45;&gt;t2 -->
<g id="edge4" class="edge">
<title>l2&#45;&gt;t2</title>
<path fill="none" stroke="black" d="M391.05,-97.98C389.2,-85.04 386.6,-66.98 384.45,-52"/>
<polygon fill="black" stroke="black" points="387.86,-51.15 382.98,-41.75 380.94,-52.15 387.86,-51.15"/>
</g>
<!-- t3 -->
<g id="node14" class="node">
<title>t3</title>
<text text-anchor="start" x="450.5" y="-19.8" font-family="Times,serif" font-size="14.00">⟨IDENT, 0⟩</text>
</g>
<!-- l3&#45;&gt;t3 -->
<g id="edge6" class="edge">
<title>l3&#45;&gt;t3</title>
<path fill="none" stroke="black" d="M503.11,-97.98C500.52,-84.91 496.88,-66.63 493.88,-51.56"/>
<polygon fill="black" stroke="black" points="497.32,-50.88 491.93,-41.75 490.45,-52.24 497.32,-50.88"/>
</g>
<!-- t4 -->
<g id="node15" class="node">
<title>t4</title>
<text text-anchor="start" x="561" y="-19.8" font-family="Times,serif" font-size="14.00">⟨EQEQ⟩</text>
</g>
<!-- l4&#45;&gt;t4 -->
<g id="edge8" class="edge">
<title>l4&#45;&gt;t4</title>
<path fill="none" stroke="black" d="M623.41,-97.98C617.15,-84.79 608.35,-66.27 601.15,-51.13"/>
<polygon fill="black" stroke="black" points="604.15,-49.28 596.7,-41.75 597.83,-52.29 604.15,-49.28"/>
</g>
<!-- t5 -->
<g id="node16" class="node">
<title>t5</title>
<text text-anchor="start" x="650.5" y="-19.8" font-family="Times,serif" font-size="14.00">⟨MINUS⟩</text>
</g>
<!-- l4&#45;&gt;t5 -->
<g id="edge9" class="edge">
<title>l4&#45;&gt;t5</title>
<path fill="none" stroke="black" d="M641.09,-97.98C648.6,-84.66 659.16,-65.92 667.74,-50.7"/>
<polygon fill="black" stroke="black" points="670.92,-52.18 672.78,-41.75 664.82,-48.75 670.92,-52.18"/>
</g>
<!-- t6 -->
<g id="node17" class="node">
<title>t6</title>
<text text-anchor="start" x="748.5" y="-19.8" font-family="Times,serif" font-size="14.00">⟨INT, 1⟩</text>
</g>
<!-- l5&#45;&gt;t6 -->
<g id="edge11" class="edge">
<title>l5&#45;&gt;t6</title>
<path fill="none" stroke="black" d="M760.07,-97.98C762.82,-84.91 766.66,-66.63 769.82,-51.56"/>
<polygon fill="black" stroke="black" points="773.25,-52.26 771.88,-41.75 766.4,-50.82 773.25,-52.26"/>
</g>
<!-- t7 -->
<g id="node18" class="node">
<title>t7</title>
<text text-anchor="start" x="837" y="-19.8" font-family="Times,serif" font-size="14.00">⟨RPAREN⟩</text>
</g>
<!-- l6&#45;&gt;t7 -->
<g id="edge13" class="edge">
<title>l6&#45;&gt;t7</title>
<path fill="none" stroke="black" d="M867,-97.98C868.15,-85.04 869.75,-66.98 871.07,-52"/>
<polygon fill="black" stroke="black" points="874.58,-52.02 871.97,-41.75 867.61,-51.41 874.58,-52.02"/>
</g>
</g>
</svg>
