<?xml version="1.0" encoding="UTF-8" standalone="no"?>
<!DOCTYPE svg PUBLIC "-//W3C//DTD SVG 1.1//EN"
 "http://www.w3.org/Graphics/SVG/1.1/DTD/svg11.dtd">
<!-- Generated by graphviz version 2.43.0 (0)
 -->
<!-- Title: implicit_parse_tree Pages: 1 -->
<svg width="851pt" height="152pt"
 viewBox="0.00 0.00 851.00 152.00" xmlns="http://www.w3.org/2000/svg" xmlns:xlink="http://www.w3.org/1999/xlink">
<g id="graph0" class="graph" transform="scale(1 1) rotate(0) translate(4 148)">
<title>implicit_parse_tree</title>
<polygon fill="white" stroke="transparent" points="-4,4 -4,-148 847,-148 847,4 -4,4"/>
<!-- eval_print -->
<g id="node1" class="node">
<title>eval_print</title>
<text text-anchor="middle" x="49" y="-68.3" font-family="Times,serif" font-size="14.00">eval_print()</text>
</g>
<!-- match_semi -->
<g id="node2" class="node">
<title>match_semi</title>
<text text-anchor="middle" x="181.5" y="-122.3" font-family="Times,serif" font-size="14.00">;</text>
</g>
<!-- eval_print&#45;&#45;match_semi -->
<g id="edge1" class="edge">
<title>eval_print&#45;&#45;match_semi</title>
<path fill="none" stroke="black" d="M93.82,-90.13C113.96,-98.47 137.16,-108.07 154.49,-115.24"/>
</g>
<!-- eval_expr1 -->
<g id="node3" class="node">
<title>eval_expr1</title>
<text text-anchor="middle" x="181.5" y="-68.3" font-family="Times,serif" font-size="14.00">eval_expr()</text>
</g>
<!-- eval_print&#45;&#45;eval_expr1 -->
<g id="edge2" class="edge">
<title>eval_print&#45;&#45;eval_expr1</title>
<path fill="none" stroke="black" d="M98.22,-72C109.84,-72 122.23,-72 133.78,-72"/>
</g>
<!-- match_print -->
<g id="node4" class="node">
<title>match_print</title>
<text text-anchor="middle" x="181.5" y="-14.3" font-family="Times,serif" font-size="14.00">print</text>
</g>
<!-- eval_print&#45;&#45;match_print -->
<g id="edge3" class="edge">
<title>eval_print&#45;&#45;match_print</title>
<path fill="none" stroke="black" d="M93.82,-53.87C113.96,-45.53 137.16,-35.93 154.49,-28.76"/>
</g>
<!-- eval_expr2 -->
<g id="node5" class="node">
<title>eval_expr2</title>
<text text-anchor="middle" x="312.5" y="-68.3" font-family="Times,serif" font-size="14.00">eval_expr()</text>
</g>
<!-- eval_expr1&#45;&#45;eval_expr2 -->
<g id="edge4" class="edge">
<title>eval_expr1&#45;&#45;eval_expr2</title>
<path fill="none" stroke="black" d="M229.07,-72C240.76,-72 253.31,-72 265,-72"/>
</g>
<!-- eval_expr3 -->
<g id="node6" class="node">
<title>eval_expr3</title>
<text text-anchor="middle" x="443.5" y="-68.3" font-family="Times,serif" font-size="14.00">eval_expr()</text>
</g>
<!-- eval_expr2&#45;&#45;eval_expr3 -->
<g id="edge5" class="edge">
<title>eval_expr2&#45;&#45;eval_expr3</title>
<path fill="none" stroke="black" d="M360.07,-72C371.76,-72 384.31,-72 396,-72"/>
</g>
<!-- eval_expr4 -->
<g id="node7" class="node">
<title>eval_expr4</title>
<text text-anchor="middle" x="574.5" y="-68.3" font-family="Times,serif" font-size="14.00">eval_expr()</text>
</g>
<!-- eval_expr3&#45;&#45;eval_expr4 -->
<g id="edge6" class="edge">
<title>eval_expr3&#45;&#45;eval_expr4</title>
<path fill="none" stroke="black" d="M491.07,-72C502.76,-72 515.31,-72 527,-72"/>
</g>
<!-- eval_expr5 -->
<g id="node8" class="node">
<title>eval_expr5</title>
<text text-anchor="middle" x="705.5" y="-68.3" font-family="Times,serif" font-size="14.00">eval_expr()</text>
</g>
<!-- eval_expr4&#45;&#45;eval_expr5 -->
<g id="edge7" class="edge">
<title>eval_expr4&#45;&#45;eval_expr5</title>
<path fill="none" stroke="black" d="M622.07,-72C633.76,-72 646.31,-72 658,-72"/>
</g>
<!-- eval_exprn -->
<g id="node9" class="node">
<title>eval_exprn</title>
<text text-anchor="middle" x="816" y="-68.3" font-family="Times,serif" font-size="14.00">...</text>
</g>
<!-- eval_expr5&#45;&#45;eval_exprn -->
<g id="edge8" class="edge">
<title>eval_expr5&#45;&#45;eval_exprn</title>
<path fill="none" stroke="black" d="M753.14,-72C765.32,-72 778.02,-72 788.72,-72"/>
</g>
</g>
</svg>
