<?xml version="1.0" encoding="UTF-8" standalone="no"?>
<!DOCTYPE svg PUBLIC "-//W3C//DTD SVG 1.1//EN"
 "http://www.w3.org/Graphics/SVG/1.1/DTD/svg11.dtd">
<!-- Generated by graphviz version 2.43.0 (0)
 -->
<!-- Title: gramer Pages: 1 -->
<svg width="287pt" height="260pt"
 viewBox="0.00 0.00 287.00 260.00" xmlns="http://www.w3.org/2000/svg" xmlns:xlink="http://www.w3.org/1999/xlink">
<g id="graph0" class="graph" transform="scale(1 1) rotate(0) translate(4 256)">
<title>gramer</title>
<polygon fill="white" stroke="transparent" points="-4,4 -4,-256 283,-256 283,4 -4,4"/>
<!-- s1 -->
<g id="node1" class="node">
<title>s1</title>
<text text-anchor="middle" x="33.5" y="-230.3" font-family="Times,serif" font-size="14.00">Formal</text>
</g>
<!-- s -->
<g id="node4" class="node">
<title>s</title>
<text text-anchor="middle" x="34.5" y="-158.3" font-family="Times,serif" font-size="14.00">⟨Sıfat⟩</text>
</g>
<!-- s1&#45;&gt;s -->
<g id="edge1" class="edge">
<title>s1&#45;&gt;s</title>
<path fill="none" stroke="black" d="M33.75,-215.7C33.86,-207.98 33.99,-198.71 34.11,-190.11"/>
<polygon fill="black" stroke="black" points="37.61,-190.15 34.26,-180.1 30.61,-190.05 37.61,-190.15"/>
</g>
<!-- i1 -->
<g id="node2" class="node">
<title>i1</title>
<text text-anchor="middle" x="114.5" y="-230.3" font-family="Times,serif" font-size="14.00">dilleri</text>
</g>
<!-- i -->
<g id="node5" class="node">
<title>i</title>
<text text-anchor="middle" x="113.5" y="-158.3" font-family="Times,serif" font-size="14.00">⟨İsim⟩</text>
</g>
<!-- i1&#45;&gt;i -->
<g id="edge2" class="edge">
<title>i1&#45;&gt;i</title>
<path fill="none" stroke="black" d="M114.25,-215.7C114.14,-207.98 114.01,-198.71 113.89,-190.11"/>
<polygon fill="black" stroke="black" points="117.39,-190.05 113.74,-180.1 110.39,-190.15 117.39,-190.05"/>
</g>
<!-- f1 -->
<g id="node3" class="node">
<title>f1</title>
<text text-anchor="middle" x="222.5" y="-230.3" font-family="Times,serif" font-size="14.00">öğreniyorum.</text>
</g>
<!-- f -->
<g id="node6" class="node">
<title>f</title>
<text text-anchor="middle" x="222.5" y="-86.3" font-family="Times,serif" font-size="14.00">⟨Fiil⟩</text>
</g>
<!-- f1&#45;&gt;f -->
<g id="edge3" class="edge">
<title>f1&#45;&gt;f</title>
<path fill="none" stroke="black" d="M222.5,-215.87C222.5,-191.67 222.5,-147.21 222.5,-118.39"/>
<polygon fill="black" stroke="black" points="226,-118.19 222.5,-108.19 219,-118.19 226,-118.19"/>
</g>
<!-- st -->
<g id="node7" class="node">
<title>st</title>
<text text-anchor="middle" x="108.5" y="-86.3" font-family="Times,serif" font-size="14.00">⟨SıfatTamlaması⟩</text>
</g>
<!-- s&#45;&gt;st -->
<g id="edge4" class="edge">
<title>s&#45;&gt;st</title>
<path fill="none" stroke="black" d="M52.79,-143.7C61.93,-135.05 73.14,-124.45 83.1,-115.03"/>
<polygon fill="black" stroke="black" points="85.56,-117.52 90.42,-108.1 80.75,-112.43 85.56,-117.52"/>
</g>
<!-- i&#45;&gt;st -->
<g id="edge5" class="edge">
<title>i&#45;&gt;st</title>
<path fill="none" stroke="black" d="M112.26,-143.7C111.71,-135.98 111.05,-126.71 110.44,-118.11"/>
<polygon fill="black" stroke="black" points="113.93,-117.83 109.72,-108.1 106.94,-118.33 113.93,-117.83"/>
</g>
<!-- S -->
<g id="node8" class="node">
<title>S</title>
<text text-anchor="middle" x="165.5" y="-14.3" font-family="Times,serif" font-size="14.00">⟨S⟩</text>
</g>
<!-- f&#45;&gt;S -->
<g id="edge7" class="edge">
<title>f&#45;&gt;S</title>
<path fill="none" stroke="black" d="M208.41,-71.7C201.58,-63.3 193.24,-53.07 185.74,-43.86"/>
<polygon fill="black" stroke="black" points="188.46,-41.65 179.43,-36.1 183.03,-46.07 188.46,-41.65"/>
</g>
<!-- st&#45;&gt;S -->
<g id="edge6" class="edge">
<title>st&#45;&gt;S</title>
<path fill="none" stroke="black" d="M122.59,-71.7C129.42,-63.3 137.76,-53.07 145.26,-43.86"/>
<polygon fill="black" stroke="black" points="147.97,-46.07 151.57,-36.1 142.54,-41.65 147.97,-46.07"/>
</g>
</g>
</svg>
