<?xml version="1.0" encoding="UTF-8" standalone="no"?>
<!DOCTYPE svg PUBLIC "-//W3C//DTD SVG 1.1//EN"
 "http://www.w3.org/Graphics/SVG/1.1/DTD/svg11.dtd">
<!-- Generated by graphviz version 2.43.0 (0)
 -->
<!-- Title: lexical_analysis Pages: 1 -->
<svg width="920pt" height="229pt"
 viewBox="0.00 0.00 920.00 229.00" xmlns="http://www.w3.org/2000/svg" xmlns:xlink="http://www.w3.org/1999/xlink">
<g id="graph0" class="graph" transform="scale(1 1) rotate(0) translate(4 225)">
<title>lexical_analysis</title>
<polygon fill="white" stroke="transparent" points="-4,4 -4,-225 916,-225 916,4 -4,4"/>
<!-- input -->
<g id="node1" class="node">
<title>input</title>
<text text-anchor="middle" x="132.5" y="-199.3" font-family="Times,serif" font-size="14.00">input</text>
</g>
<!-- lexemes -->
<g id="node3" class="node">
<title>lexemes</title>
<text text-anchor="middle" x="132.5" y="-112.3" font-family="Times,serif" font-size="14.00">lexemes</text>
</g>
<!-- input&#45;&gt;lexemes -->
<g id="edge14" class="edge">
<title>input&#45;&gt;lexemes</title>
<path fill="none" stroke="black" d="M132.5,-184.8C132.5,-173.16 132.5,-157.55 132.5,-144.24"/>
<polygon fill="black" stroke="black" points="136,-144.18 132.5,-134.18 129,-144.18 136,-144.18"/>
<text text-anchor="middle" x="151" y="-155.8" font-family="Times,serif" font-size="14.00">lexer</text>
</g>
<!-- input_str -->
<g id="node2" class="node">
<title>input_str</title>
<text text-anchor="start" x="533" y="-199.3" font-family="Times,serif" font-size="14.00">if (x==&#45;1)</text>
</g>
<!-- l1 -->
<g id="node4" class="node">
<title>l1</title>
<text text-anchor="start" x="239.5" y="-112.3" font-family="Times,serif" font-size="14.00">⟨ident, &quot;if&quot;⟩</text>
</g>
<!-- input_str&#45;&gt;l1 -->
<g id="edge1" class="edge">
<title>input_str&#45;&gt;l1</title>
<path fill="none" stroke="black" d="M524.87,-189.28C480.23,-176.25 408.59,-155.3 337.3,-134.23"/>
<polygon fill="black" stroke="black" points="338.28,-130.87 327.7,-131.39 336.29,-137.58 338.28,-130.87"/>
</g>
<!-- l2 -->
<g id="node5" class="node">
<title>l2</title>
<text text-anchor="start" x="354" y="-112.3" font-family="Times,serif" font-size="14.00">⟨punct, &quot;(&quot;⟩</text>
</g>
<!-- input_str&#45;&gt;l2 -->
<g id="edge3" class="edge">
<title>input_str&#45;&gt;l2</title>
<path fill="none" stroke="black" d="M533.09,-184.8C505.6,-171.45 467.33,-152.86 437.81,-138.52"/>
<polygon fill="black" stroke="black" points="439.09,-135.25 428.56,-134.03 436.03,-141.55 439.09,-135.25"/>
</g>
<!-- l3 -->
<g id="node6" class="node">
<title>l3</title>
<text text-anchor="start" x="467" y="-112.3" font-family="Times,serif" font-size="14.00">⟨ident, &quot;x&quot;⟩</text>
</g>
<!-- input_str&#45;&gt;l3 -->
<g id="edge5" class="edge">
<title>input_str&#45;&gt;l3</title>
<path fill="none" stroke="black" d="M555.95,-184.8C547.05,-172.59 534.94,-155.99 524.94,-142.28"/>
<polygon fill="black" stroke="black" points="527.75,-140.19 519.03,-134.18 522.09,-144.32 527.75,-140.19"/>
</g>
<!-- l4 -->
<g id="node7" class="node">
<title>l4</title>
<text text-anchor="start" x="580" y="-112.3" font-family="Times,serif" font-size="14.00">⟨punct, &quot;==&#45;&quot;⟩</text>
</g>
<!-- input_str&#45;&gt;l4 -->
<g id="edge7" class="edge">
<title>input_str&#45;&gt;l4</title>
<path fill="none" stroke="black" d="M581.25,-184.8C590.3,-172.59 602.6,-155.99 612.76,-142.28"/>
<polygon fill="black" stroke="black" points="615.63,-144.29 618.77,-134.18 610,-140.13 615.63,-144.29"/>
</g>
<!-- l5 -->
<g id="node8" class="node">
<title>l5</title>
<text text-anchor="start" x="724.5" y="-112.3" font-family="Times,serif" font-size="14.00">⟨int, &quot;1&quot;⟩</text>
</g>
<!-- input_str&#45;&gt;l5 -->
<g id="edge10" class="edge">
<title>input_str&#45;&gt;l5</title>
<path fill="none" stroke="black" d="M606.34,-184.8C635.84,-171.39 676.96,-152.7 708.56,-138.34"/>
<polygon fill="black" stroke="black" points="710.38,-141.35 718.03,-134.03 707.48,-134.98 710.38,-141.35"/>
</g>
<!-- l6 -->
<g id="node9" class="node">
<title>l6</title>
<text text-anchor="start" x="825" y="-112.3" font-family="Times,serif" font-size="14.00">⟨punct, &quot;)&quot;⟩</text>
</g>
<!-- input_str&#45;&gt;l6 -->
<g id="edge12" class="edge">
<title>input_str&#45;&gt;l6</title>
<path fill="none" stroke="black" d="M612.18,-189.46C663.76,-174.65 749.73,-149.96 806.77,-133.58"/>
<polygon fill="black" stroke="black" points="808.07,-136.85 816.72,-130.72 806.14,-130.12 808.07,-136.85"/>
</g>
<!-- ident_map -->
<g id="node10" class="node">
<title>ident_map</title>
<polygon fill="none" stroke="black" points="0,-0.5 0,-46.5 115,-46.5 115,-0.5 0,-0.5"/>
<text text-anchor="middle" x="41" y="-31.3" font-family="Times,serif" font-size="14.00">identifier</text>
<polyline fill="none" stroke="black" points="0,-23.5 82,-23.5 "/>
<text text-anchor="middle" x="41" y="-8.3" font-family="Times,serif" font-size="14.00">x</text>
<polyline fill="none" stroke="black" points="82,-0.5 82,-46.5 "/>
<text text-anchor="middle" x="98.5" y="-31.3" font-family="Times,serif" font-size="14.00">ID</text>
<polyline fill="none" stroke="black" points="82,-23.5 115,-23.5 "/>
<text text-anchor="middle" x="98.5" y="-8.3" font-family="Times,serif" font-size="14.00">0</text>
</g>
<!-- lexemes&#45;&gt;ident_map -->
<!-- tokens -->
<g id="node11" class="node">
<title>tokens</title>
<text text-anchor="middle" x="165.5" y="-19.8" font-family="Times,serif" font-size="14.00">tokens</text>
</g>
<!-- lexemes&#45;&gt;tokens -->
<g id="edge15" class="edge">
<title>lexemes&#45;&gt;tokens</title>
<path fill="none" stroke="black" d="M138.71,-97.98C143.47,-84.91 150.14,-66.63 155.63,-51.56"/>
<polygon fill="black" stroke="black" points="159.07,-52.35 159.21,-41.75 152.49,-49.95 159.07,-52.35"/>
<text text-anchor="middle" x="184" y="-68.8" font-family="Times,serif" font-size="14.00">tokenizer</text>
</g>
<!-- t1 -->
<g id="node12" class="node">
<title>t1</title>
<text text-anchor="start" x="266.5" y="-19.8" font-family="Times,serif" font-size="14.00">⟨IF⟩</text>
</g>
<!-- l1&#45;&gt;t1 -->
<g id="edge2" class="edge">
<title>l1&#45;&gt;t1</title>
<path fill="none" stroke="black" d="M279.5,-97.98C279.5,-85.04 279.5,-66.98 279.5,-52"/>
<polygon fill="black" stroke="black" points="283,-51.75 279.5,-41.75 276,-51.75 283,-51.75"/>
</g>
<!-- t2 -->
<g id="node13" class="node">
<title>t2</title>
<text text-anchor="start" x="356" y="-19.8" font-family="Times,serif" font-size="14.00">⟨LPAREN⟩</text>
</g>
<!-- l2&#45;&gt;t2 -->
<g id="edge4" class="edge">
<title>l2&#45;&gt;t2</title>
<path fill="none" stroke="black" d="M393.12,-97.98C392.84,-85.04 392.44,-66.98 392.11,-52"/>
<polygon fill="black" stroke="black" points="395.6,-51.67 391.88,-41.75 388.6,-51.83 395.6,-51.67"/>
</g>
<!-- t3 -->
<g id="node14" class="node">
<title>t3</title>
<text text-anchor="start" x="461.5" y="-19.8" font-family="Times,serif" font-size="14.00">⟨IDENT, 0⟩</text>
</g>
<!-- l3&#45;&gt;t3 -->
<g id="edge6" class="edge">
<title>l3&#45;&gt;t3</title>
<path fill="none" stroke="black" d="M505.18,-97.98C504.18,-85.04 502.79,-66.98 501.63,-52"/>
<polygon fill="black" stroke="black" points="505.1,-51.45 500.83,-41.75 498.12,-51.99 505.1,-51.45"/>
</g>
<!-- t4 -->
<g id="node15" class="node">
<title>t4</title>
<text text-anchor="start" x="574" y="-19.8" font-family="Times,serif" font-size="14.00">⟨EQ⟩</text>
</g>
<!-- l4&#45;&gt;t4 -->
<g id="edge8" class="edge">
<title>l4&#45;&gt;t4</title>
<path fill="none" stroke="black" d="M623.79,-97.98C617.81,-84.79 609.43,-66.27 602.56,-51.13"/>
<polygon fill="black" stroke="black" points="605.63,-49.42 598.32,-41.75 599.26,-52.31 605.63,-49.42"/>
</g>
<!-- t5 -->
<g id="node16" class="node">
<title>t5</title>
<text text-anchor="start" x="643.5" y="-19.8" font-family="Times,serif" font-size="14.00">⟨MINUS⟩</text>
</g>
<!-- l4&#45;&gt;t5 -->
<g id="edge9" class="edge">
<title>l4&#45;&gt;t5</title>
<path fill="none" stroke="black" d="M639.78,-97.98C646.19,-84.79 655.19,-66.27 662.55,-51.13"/>
<polygon fill="black" stroke="black" points="665.89,-52.28 667.11,-41.75 659.59,-49.22 665.89,-52.28"/>
</g>
<!-- t6 -->
<g id="node17" class="node">
<title>t6</title>
<text text-anchor="start" x="741.5" y="-19.8" font-family="Times,serif" font-size="14.00">⟨INT, 1⟩</text>
</g>
<!-- l5&#45;&gt;t6 -->
<g id="edge11" class="edge">
<title>l5&#45;&gt;t6</title>
<path fill="none" stroke="black" d="M757.95,-97.98C759.8,-85.04 762.4,-66.98 764.55,-52"/>
<polygon fill="black" stroke="black" points="768.06,-52.15 766.02,-41.75 761.14,-51.15 768.06,-52.15"/>
</g>
<!-- t7 -->
<g id="node18" class="node">
<title>t7</title>
<text text-anchor="start" x="830" y="-19.8" font-family="Times,serif" font-size="14.00">⟨RPAREN⟩</text>
</g>
<!-- l6&#45;&gt;t7 -->
<g id="edge13" class="edge">
<title>l6&#45;&gt;t7</title>
<path fill="none" stroke="black" d="M864.88,-97.98C865.16,-85.04 865.56,-66.98 865.89,-52"/>
<polygon fill="black" stroke="black" points="869.4,-51.83 866.12,-41.75 862.4,-51.67 869.4,-51.83"/>
</g>
</g>
</svg>
