<?xml version="1.0" encoding="UTF-8" standalone="no"?>
<!DOCTYPE svg PUBLIC "-//W3C//DTD SVG 1.1//EN"
 "http://www.w3.org/Graphics/SVG/1.1/DTD/svg11.dtd">
<!-- Generated by graphviz version 2.43.0 (0)
 -->
<!-- Title: G Pages: 1 -->
<svg width="676pt" height="479pt"
 viewBox="0.00 0.00 676.04 479.00" xmlns="http://www.w3.org/2000/svg" xmlns:xlink="http://www.w3.org/1999/xlink">
<g id="graph0" class="graph" transform="scale(1 1) rotate(0) translate(4 475)">
<title>G</title>
<polygon fill="white" stroke="transparent" points="-4,4 -4,-475 672.04,-475 672.04,4 -4,4"/>
<!-- 1 -->
<g id="node1" class="node">
<title>1</title>
<ellipse fill="none" stroke="black" cx="233.45" cy="-453" rx="32.49" ry="18"/>
<text text-anchor="middle" x="233.45" y="-449.3" font-family="Times,serif" font-size="14.00">stmt</text>
</g>
<!-- 2 -->
<g id="node2" class="node">
<title>2</title>
<ellipse fill="none" stroke="black" cx="195.45" cy="-381" rx="31.7" ry="18"/>
<text text-anchor="middle" x="195.45" y="-377.3" font-family="Times,serif" font-size="14.00">expr</text>
</g>
<!-- 1&#45;&gt;2 -->
<g id="edge1" class="edge">
<title>1&#45;&gt;2</title>
<path fill="none" stroke="black" d="M224.44,-435.41C219.9,-427.04 214.29,-416.71 209.22,-407.37"/>
<polygon fill="black" stroke="black" points="212.23,-405.59 204.39,-398.47 206.08,-408.93 212.23,-405.59"/>
</g>
<!-- 24 -->
<g id="node24" class="node">
<title>24</title>
<polygon fill="none" stroke="black" points="299.45,-399 245.45,-399 245.45,-363 299.45,-363 299.45,-399"/>
<text text-anchor="start" x="269.95" y="-377.3" font-family="Times,serif" font-size="14.00">;</text>
</g>
<!-- 1&#45;&gt;24 -->
<g id="edge23" class="edge">
<title>1&#45;&gt;24</title>
<path fill="none" stroke="black" d="M242.69,-435.41C247.22,-427.28 252.78,-417.31 257.86,-408.18"/>
<polygon fill="black" stroke="black" points="260.92,-409.89 262.73,-399.45 254.8,-406.48 260.92,-409.89"/>
</g>
<!-- 3 -->
<g id="node3" class="node">
<title>3</title>
<ellipse fill="none" stroke="black" cx="142.45" cy="-309" rx="33.29" ry="18"/>
<text text-anchor="middle" x="142.45" y="-305.3" font-family="Times,serif" font-size="14.00">term</text>
</g>
<!-- 2&#45;&gt;3 -->
<g id="edge2" class="edge">
<title>2&#45;&gt;3</title>
<path fill="none" stroke="black" d="M183.42,-364.12C176.64,-355.17 168.05,-343.81 160.48,-333.81"/>
<polygon fill="black" stroke="black" points="163.25,-331.68 154.43,-325.82 157.67,-335.91 163.25,-331.68"/>
</g>
<!-- 8 -->
<g id="node8" class="node">
<title>8</title>
<ellipse fill="none" stroke="black" cx="249.45" cy="-309" rx="54.69" ry="18"/>
<text text-anchor="middle" x="249.45" y="-305.3" font-family="Times,serif" font-size="14.00">expr_rest</text>
</g>
<!-- 2&#45;&gt;8 -->
<g id="edge7" class="edge">
<title>2&#45;&gt;8</title>
<path fill="none" stroke="black" d="M207.7,-364.12C214.34,-355.51 222.7,-344.67 230.19,-334.96"/>
<polygon fill="black" stroke="black" points="233.15,-336.85 236.49,-326.8 227.61,-332.58 233.15,-336.85"/>
</g>
<!-- 4 -->
<g id="node4" class="node">
<title>4</title>
<ellipse fill="none" stroke="black" cx="34.45" cy="-237" rx="34.39" ry="18"/>
<text text-anchor="middle" x="34.45" y="-233.3" font-family="Times,serif" font-size="14.00">atom</text>
</g>
<!-- 3&#45;&gt;4 -->
<g id="edge3" class="edge">
<title>3&#45;&gt;4</title>
<path fill="none" stroke="black" d="M121.88,-294.67C105.47,-284.03 82.27,-269 63.89,-257.08"/>
<polygon fill="black" stroke="black" points="65.6,-254.02 55.31,-251.52 61.79,-259.9 65.6,-254.02"/>
</g>
<!-- 6 -->
<g id="node6" class="node">
<title>6</title>
<ellipse fill="none" stroke="black" cx="142.45" cy="-237" rx="55.79" ry="18"/>
<text text-anchor="middle" x="142.45" y="-233.3" font-family="Times,serif" font-size="14.00">term_rest</text>
</g>
<!-- 3&#45;&gt;6 -->
<g id="edge5" class="edge">
<title>3&#45;&gt;6</title>
<path fill="none" stroke="black" d="M142.45,-290.7C142.45,-282.98 142.45,-273.71 142.45,-265.11"/>
<polygon fill="black" stroke="black" points="145.95,-265.1 142.45,-255.1 138.95,-265.1 145.95,-265.1"/>
</g>
<!-- 5 -->
<g id="node5" class="node">
<title>5</title>
<polygon fill="none" stroke="black" points="61.45,-182.5 7.45,-182.5 7.45,-146.5 61.45,-146.5 61.45,-182.5"/>
<text text-anchor="start" x="24.95" y="-160.8" font-family="Times,serif" font-size="14.00">10</text>
</g>
<!-- 4&#45;&gt;5 -->
<g id="edge4" class="edge">
<title>4&#45;&gt;5</title>
<path fill="none" stroke="black" d="M34.45,-218.93C34.45,-211.17 34.45,-201.78 34.45,-193.06"/>
<polygon fill="black" stroke="black" points="37.95,-192.9 34.45,-182.9 30.95,-192.9 37.95,-192.9"/>
</g>
<!-- 7 -->
<g id="node7" class="node">
<title>7</title>
<polygon fill="none" stroke="black" points="112.45,-146.5 112.45,-182.5 166.45,-182.5 166.45,-146.5 112.45,-146.5"/>
<text text-anchor="middle" x="139.45" y="-160.8" font-family="Times,serif" font-size="14.00">ε</text>
</g>
<!-- 6&#45;&gt;7 -->
<g id="edge6" class="edge">
<title>6&#45;&gt;7</title>
<path fill="none" stroke="black" d="M141.72,-218.93C141.39,-211.17 140.99,-201.78 140.62,-193.06"/>
<polygon fill="black" stroke="black" points="144.11,-192.74 140.19,-182.9 137.12,-193.04 144.11,-192.74"/>
</g>
<!-- 9 -->
<g id="node9" class="node">
<title>9</title>
<polygon fill="none" stroke="black" points="273.45,-255 219.45,-255 219.45,-219 273.45,-219 273.45,-255"/>
<text text-anchor="start" x="243.95" y="-233.3" font-family="Times,serif" font-size="14.00">&#45;</text>
</g>
<!-- 8&#45;&gt;9 -->
<g id="edge8" class="edge">
<title>8&#45;&gt;9</title>
<path fill="none" stroke="black" d="M248.71,-290.7C248.37,-282.98 247.98,-273.71 247.61,-265.11"/>
<polygon fill="black" stroke="black" points="251.11,-264.95 247.18,-255.1 244.11,-265.25 251.11,-264.95"/>
</g>
<!-- 10 -->
<g id="node10" class="node">
<title>10</title>
<ellipse fill="none" stroke="black" cx="324.45" cy="-237" rx="33.29" ry="18"/>
<text text-anchor="middle" x="324.45" y="-233.3" font-family="Times,serif" font-size="14.00">term</text>
</g>
<!-- 8&#45;&gt;10 -->
<g id="edge9" class="edge">
<title>8&#45;&gt;10</title>
<path fill="none" stroke="black" d="M266.84,-291.76C276.94,-282.34 289.8,-270.34 300.81,-260.06"/>
<polygon fill="black" stroke="black" points="303.5,-262.33 308.43,-252.95 298.73,-257.22 303.5,-262.33"/>
</g>
<!-- 15 -->
<g id="node15" class="node">
<title>15</title>
<ellipse fill="none" stroke="black" cx="466.45" cy="-237" rx="54.69" ry="18"/>
<text text-anchor="middle" x="466.45" y="-233.3" font-family="Times,serif" font-size="14.00">expr_rest</text>
</g>
<!-- 8&#45;&gt;15 -->
<g id="edge14" class="edge">
<title>8&#45;&gt;15</title>
<path fill="none" stroke="black" d="M287.25,-295.81C323.85,-284 379.47,-266.06 419.03,-253.3"/>
<polygon fill="black" stroke="black" points="420.28,-256.57 428.72,-250.17 418.13,-249.91 420.28,-256.57"/>
</g>
<!-- 11 -->
<g id="node11" class="node">
<title>11</title>
<ellipse fill="none" stroke="black" cx="218.45" cy="-164.5" rx="34.39" ry="18"/>
<text text-anchor="middle" x="218.45" y="-160.8" font-family="Times,serif" font-size="14.00">atom</text>
</g>
<!-- 10&#45;&gt;11 -->
<g id="edge10" class="edge">
<title>10&#45;&gt;11</title>
<path fill="none" stroke="black" d="M304.01,-222.41C287.88,-211.68 265.18,-196.58 247.21,-184.63"/>
<polygon fill="black" stroke="black" points="249.09,-181.68 238.82,-179.05 245.21,-187.5 249.09,-181.68"/>
</g>
<!-- 13 -->
<g id="node13" class="node">
<title>13</title>
<ellipse fill="none" stroke="black" cx="326.45" cy="-164.5" rx="55.79" ry="18"/>
<text text-anchor="middle" x="326.45" y="-160.8" font-family="Times,serif" font-size="14.00">term_rest</text>
</g>
<!-- 10&#45;&gt;13 -->
<g id="edge12" class="edge">
<title>10&#45;&gt;13</title>
<path fill="none" stroke="black" d="M324.93,-218.93C325.15,-211.17 325.42,-201.78 325.67,-193.06"/>
<polygon fill="black" stroke="black" points="329.17,-192.99 325.95,-182.9 322.17,-192.8 329.17,-192.99"/>
</g>
<!-- 12 -->
<g id="node12" class="node">
<title>12</title>
<polygon fill="none" stroke="black" points="245.45,-109.5 191.45,-109.5 191.45,-73.5 245.45,-73.5 245.45,-109.5"/>
<text text-anchor="middle" x="218.45" y="-87.8" font-family="Times,serif" font-size="14.00">2</text>
</g>
<!-- 11&#45;&gt;12 -->
<g id="edge11" class="edge">
<title>11&#45;&gt;12</title>
<path fill="none" stroke="black" d="M218.45,-146.31C218.45,-138.29 218.45,-128.55 218.45,-119.57"/>
<polygon fill="black" stroke="black" points="221.95,-119.53 218.45,-109.53 214.95,-119.53 221.95,-119.53"/>
</g>
<!-- 14 -->
<g id="node14" class="node">
<title>14</title>
<polygon fill="none" stroke="black" points="298.45,-73.5 298.45,-109.5 352.45,-109.5 352.45,-73.5 298.45,-73.5"/>
<text text-anchor="middle" x="325.45" y="-87.8" font-family="Times,serif" font-size="14.00">ε</text>
</g>
<!-- 13&#45;&gt;14 -->
<g id="edge13" class="edge">
<title>13&#45;&gt;14</title>
<path fill="none" stroke="black" d="M326.2,-146.31C326.09,-138.29 325.95,-128.55 325.83,-119.57"/>
<polygon fill="black" stroke="black" points="329.33,-119.48 325.69,-109.53 322.33,-119.58 329.33,-119.48"/>
</g>
<!-- 16 -->
<g id="node16" class="node">
<title>16</title>
<polygon fill="none" stroke="black" points="455.45,-182.5 401.45,-182.5 401.45,-146.5 455.45,-146.5 455.45,-182.5"/>
<text text-anchor="start" x="425.95" y="-160.8" font-family="Times,serif" font-size="14.00">&#45;</text>
</g>
<!-- 15&#45;&gt;16 -->
<g id="edge15" class="edge">
<title>15&#45;&gt;16</title>
<path fill="none" stroke="black" d="M457.25,-218.93C452.88,-210.83 447.56,-200.96 442.68,-191.91"/>
<polygon fill="black" stroke="black" points="445.65,-190.04 437.82,-182.9 439.49,-193.36 445.65,-190.04"/>
</g>
<!-- 17 -->
<g id="node17" class="node">
<title>17</title>
<ellipse fill="none" stroke="black" cx="506.45" cy="-164.5" rx="33.29" ry="18"/>
<text text-anchor="middle" x="506.45" y="-160.8" font-family="Times,serif" font-size="14.00">term</text>
</g>
<!-- 15&#45;&gt;17 -->
<g id="edge16" class="edge">
<title>15&#45;&gt;17</title>
<path fill="none" stroke="black" d="M476.13,-218.93C480.92,-210.5 486.79,-200.15 492.08,-190.81"/>
<polygon fill="black" stroke="black" points="495.24,-192.35 497.13,-181.92 489.15,-188.89 495.24,-192.35"/>
</g>
<!-- 22 -->
<g id="node22" class="node">
<title>22</title>
<ellipse fill="none" stroke="black" cx="613.45" cy="-164.5" rx="54.69" ry="18"/>
<text text-anchor="middle" x="613.45" y="-160.8" font-family="Times,serif" font-size="14.00">expr_rest</text>
</g>
<!-- 15&#45;&gt;22 -->
<g id="edge21" class="edge">
<title>15&#45;&gt;22</title>
<path fill="none" stroke="black" d="M496.19,-221.73C518.81,-210.89 550.11,-195.87 574.69,-184.09"/>
<polygon fill="black" stroke="black" points="576.24,-187.23 583.74,-179.75 573.21,-180.91 576.24,-187.23"/>
</g>
<!-- 18 -->
<g id="node18" class="node">
<title>18</title>
<ellipse fill="none" stroke="black" cx="404.45" cy="-91.5" rx="34.39" ry="18"/>
<text text-anchor="middle" x="404.45" y="-87.8" font-family="Times,serif" font-size="14.00">atom</text>
</g>
<!-- 17&#45;&gt;18 -->
<g id="edge17" class="edge">
<title>17&#45;&gt;18</title>
<path fill="none" stroke="black" d="M486.78,-149.81C471.5,-139.17 450.09,-124.27 432.93,-112.33"/>
<polygon fill="black" stroke="black" points="434.61,-109.23 424.4,-106.39 430.61,-114.98 434.61,-109.23"/>
</g>
<!-- 20 -->
<g id="node20" class="node">
<title>20</title>
<ellipse fill="none" stroke="black" cx="512.45" cy="-91.5" rx="55.79" ry="18"/>
<text text-anchor="middle" x="512.45" y="-87.8" font-family="Times,serif" font-size="14.00">term_rest</text>
</g>
<!-- 17&#45;&gt;20 -->
<g id="edge19" class="edge">
<title>17&#45;&gt;20</title>
<path fill="none" stroke="black" d="M507.9,-146.31C508.58,-138.29 509.4,-128.55 510.16,-119.57"/>
<polygon fill="black" stroke="black" points="513.65,-119.79 511.01,-109.53 506.68,-119.2 513.65,-119.79"/>
</g>
<!-- 19 -->
<g id="node19" class="node">
<title>19</title>
<polygon fill="none" stroke="black" points="431.45,-36.5 377.45,-36.5 377.45,-0.5 431.45,-0.5 431.45,-36.5"/>
<text text-anchor="middle" x="404.45" y="-14.8" font-family="Times,serif" font-size="14.00">3</text>
</g>
<!-- 18&#45;&gt;19 -->
<g id="edge18" class="edge">
<title>18&#45;&gt;19</title>
<path fill="none" stroke="black" d="M404.45,-73.31C404.45,-65.29 404.45,-55.55 404.45,-46.57"/>
<polygon fill="black" stroke="black" points="407.95,-46.53 404.45,-36.53 400.95,-46.53 407.95,-46.53"/>
</g>
<!-- 21 -->
<g id="node21" class="node">
<title>21</title>
<polygon fill="none" stroke="black" points="485.45,-0.5 485.45,-36.5 539.45,-36.5 539.45,-0.5 485.45,-0.5"/>
<text text-anchor="middle" x="512.45" y="-14.8" font-family="Times,serif" font-size="14.00">ε</text>
</g>
<!-- 20&#45;&gt;21 -->
<g id="edge20" class="edge">
<title>20&#45;&gt;21</title>
<path fill="none" stroke="black" d="M512.45,-73.31C512.45,-65.29 512.45,-55.55 512.45,-46.57"/>
<polygon fill="black" stroke="black" points="515.95,-46.53 512.45,-36.53 508.95,-46.53 515.95,-46.53"/>
</g>
<!-- 23 -->
<g id="node23" class="node">
<title>23</title>
<polygon fill="none" stroke="black" points="586.45,-73.5 586.45,-109.5 640.45,-109.5 640.45,-73.5 586.45,-73.5"/>
<text text-anchor="middle" x="613.45" y="-87.8" font-family="Times,serif" font-size="14.00">ε</text>
</g>
<!-- 22&#45;&gt;23 -->
<g id="edge22" class="edge">
<title>22&#45;&gt;23</title>
<path fill="none" stroke="black" d="M613.45,-146.31C613.45,-138.29 613.45,-128.55 613.45,-119.57"/>
<polygon fill="black" stroke="black" points="616.95,-119.53 613.45,-109.53 609.95,-119.53 616.95,-119.53"/>
</g>
</g>
</svg>
