<?xml version="1.0" encoding="UTF-8" standalone="no"?>
<!DOCTYPE svg PUBLIC "-//W3C//DTD SVG 1.1//EN"
 "http://www.w3.org/Graphics/SVG/1.1/DTD/svg11.dtd">
<!-- Generated by graphviz version 2.43.0 (0)
 -->
<!-- Title: dfa_lexer Pages: 1 -->
<svg width="280pt" height="246pt"
 viewBox="0.00 0.00 280.00 246.00" xmlns="http://www.w3.org/2000/svg" xmlns:xlink="http://www.w3.org/1999/xlink">
<g id="graph0" class="graph" transform="scale(1 1) rotate(0) translate(4 242)">
<title>dfa_lexer</title>
<polygon fill="white" stroke="transparent" points="-4,4 -4,-242 276,-242 276,4 -4,4"/>
<!-- if_S -->
<g id="node1" class="node">
<title>if_S</title>
<ellipse fill="none" stroke="black" cx="18" cy="-22" rx="18" ry="18"/>
<text text-anchor="middle" x="18" y="-18.3" font-family="Times,serif" font-size="14.00">S</text>
</g>
<!-- if_A -->
<g id="node2" class="node">
<title>if_A</title>
<ellipse fill="none" stroke="black" cx="146" cy="-22" rx="18" ry="18"/>
<text text-anchor="middle" x="146" y="-18.3" font-family="Times,serif" font-size="14.00">A</text>
</g>
<!-- if_S&#45;&gt;if_A -->
<g id="edge1" class="edge">
<title>if_S&#45;&gt;if_A</title>
<path fill="none" stroke="black" d="M36.26,-22C57.27,-22 93.03,-22 117.77,-22"/>
<polygon fill="black" stroke="black" points="117.95,-25.5 127.95,-22 117.95,-18.5 117.95,-25.5"/>
<text text-anchor="middle" x="80" y="-25" font-family="Times,serif" font-size="10.00">i</text>
</g>
<!-- if_B -->
<g id="node3" class="node">
<title>if_B</title>
<ellipse fill="none" stroke="black" cx="250" cy="-22" rx="18" ry="18"/>
<ellipse fill="none" stroke="black" cx="250" cy="-22" rx="22" ry="22"/>
<text text-anchor="middle" x="250" y="-18.3" font-family="Times,serif" font-size="14.00">B</text>
</g>
<!-- if_A&#45;&gt;if_B -->
<g id="edge2" class="edge">
<title>if_A&#45;&gt;if_B</title>
<path fill="none" stroke="black" d="M164.3,-22C178.8,-22 199.87,-22 217.37,-22"/>
<polygon fill="black" stroke="black" points="217.71,-25.5 227.71,-22 217.71,-18.5 217.71,-25.5"/>
<text text-anchor="middle" x="198" y="-25" font-family="Times,serif" font-size="10.00">f</text>
</g>
<!-- ident_S -->
<g id="node4" class="node">
<title>ident_S</title>
<ellipse fill="none" stroke="black" cx="18" cy="-80" rx="18" ry="18"/>
<text text-anchor="middle" x="18" y="-76.3" font-family="Times,serif" font-size="14.00">S</text>
</g>
<!-- ident_A -->
<g id="node5" class="node">
<title>ident_A</title>
<ellipse fill="none" stroke="black" cx="146" cy="-80" rx="18" ry="18"/>
<ellipse fill="none" stroke="black" cx="146" cy="-80" rx="22" ry="22"/>
<text text-anchor="middle" x="146" y="-76.3" font-family="Times,serif" font-size="14.00">A</text>
</g>
<!-- ident_S&#45;&gt;ident_A -->
<g id="edge3" class="edge">
<title>ident_S&#45;&gt;ident_A</title>
<path fill="none" stroke="black" d="M36.26,-80C56.1,-80 89.08,-80 113.53,-80"/>
<polygon fill="black" stroke="black" points="113.75,-83.5 123.75,-80 113.75,-76.5 113.75,-83.5"/>
<text text-anchor="middle" x="80" y="-83" font-family="Times,serif" font-size="10.00">(a&#45;z|A&#45;Z|_)</text>
</g>
<!-- ident_A&#45;&gt;ident_A -->
<g id="edge4" class="edge">
<title>ident_A&#45;&gt;ident_A</title>
<path fill="none" stroke="black" d="M136.59,-100.17C135.15,-110.6 138.28,-120 146,-120 151.07,-120 154.16,-115.95 155.28,-110.22"/>
<polygon fill="black" stroke="black" points="158.78,-110.21 155.41,-100.17 151.78,-110.12 158.78,-110.21"/>
<text text-anchor="middle" x="146" y="-123" font-family="Times,serif" font-size="10.00">(a&#45;z|A&#45;Z|_|0&#45;9)</text>
</g>
<!-- num_S -->
<g id="node6" class="node">
<title>num_S</title>
<ellipse fill="none" stroke="black" cx="18" cy="-187" rx="18" ry="18"/>
<text text-anchor="middle" x="18" y="-183.3" font-family="Times,serif" font-size="14.00">S</text>
</g>
<!-- num_A -->
<g id="node7" class="node">
<title>num_A</title>
<ellipse fill="none" stroke="black" cx="146" cy="-214" rx="18" ry="18"/>
<text text-anchor="middle" x="146" y="-210.3" font-family="Times,serif" font-size="14.00">A</text>
</g>
<!-- num_S&#45;&gt;num_A -->
<g id="edge5" class="edge">
<title>num_S&#45;&gt;num_A</title>
<path fill="none" stroke="black" d="M35.73,-190.59C56.82,-195.1 93.32,-202.93 118.28,-208.28"/>
<polygon fill="black" stroke="black" points="117.69,-211.73 128.2,-210.4 119.15,-204.88 117.69,-211.73"/>
<text text-anchor="middle" x="80" y="-208" font-family="Times,serif" font-size="10.00">(+|&#45;)</text>
</g>
<!-- num_B -->
<g id="node8" class="node">
<title>num_B</title>
<ellipse fill="none" stroke="black" cx="250" cy="-187" rx="18" ry="18"/>
<ellipse fill="none" stroke="black" cx="250" cy="-187" rx="22" ry="22"/>
<text text-anchor="middle" x="250" y="-183.3" font-family="Times,serif" font-size="14.00">B</text>
</g>
<!-- num_S&#45;&gt;num_B -->
<g id="edge6" class="edge">
<title>num_S&#45;&gt;num_B</title>
<path fill="none" stroke="black" d="M35.98,-184.18C63.63,-179.95 120.12,-172.76 168,-176 184.52,-177.12 202.81,-179.5 217.82,-181.76"/>
<polygon fill="black" stroke="black" points="217.68,-185.28 228.1,-183.37 218.76,-178.37 217.68,-185.28"/>
<text text-anchor="middle" x="146" y="-179" font-family="Times,serif" font-size="10.00">(0&#45;9)</text>
</g>
<!-- num_A&#45;&gt;num_B -->
<g id="edge7" class="edge">
<title>num_A&#45;&gt;num_B</title>
<path fill="none" stroke="black" d="M163.84,-209.54C178.76,-205.59 200.91,-199.73 218.87,-194.98"/>
<polygon fill="black" stroke="black" points="219.84,-198.34 228.62,-192.4 218.05,-191.57 219.84,-198.34"/>
<text text-anchor="middle" x="198" y="-205" font-family="Times,serif" font-size="10.00">(0&#45;9)</text>
</g>
<!-- num_B&#45;&gt;num_B -->
<g id="edge8" class="edge">
<title>num_B&#45;&gt;num_B</title>
<path fill="none" stroke="black" d="M240.59,-207.17C239.15,-217.6 242.28,-227 250,-227 255.07,-227 258.16,-222.95 259.28,-217.22"/>
<polygon fill="black" stroke="black" points="262.78,-217.21 259.41,-207.17 255.78,-217.12 262.78,-217.21"/>
<text text-anchor="middle" x="250" y="-230" font-family="Times,serif" font-size="10.00">(0&#45;9)</text>
</g>
</g>
</svg>
