<?xml version="1.0" encoding="UTF-8" standalone="no"?>
<!DOCTYPE svg PUBLIC "-//W3C//DTD SVG 1.1//EN"
 "http://www.w3.org/Graphics/SVG/1.1/DTD/svg11.dtd">
<!-- Generated by graphviz version 2.43.0 (0)
 -->
<!-- Title: gramer Pages: 1 -->
<!--zoomable 131 -->

<svg id="main" version="1.1" xmlns="http://www.w3.org/2000/svg" xmlns:xlink="http://www.w3.org/1999/xlink" xml:space="preserve" onload="init(evt)">
<style type="text/css"><![CDATA[
.node, .edge {opacity: 0.7;}
.node.selected, .edge.selected {opacity: 1;}
.edge:hover path { stroke: red; }
.edge:hover polygon { stroke: red; fill: red; }
]]></style>

<defs>
  <circle id="rim" cx="0" cy="0" r="7"/>
  <circle id="rim2" cx="0" cy="0" r="3.5"/>
  <g id="zoomPlus">
    <use xlink:href="#rim" fill="#404040"><set attributeName="fill" to="#808080" begin="zoomplus.mouseover" end="zoomplus.mouseout"/></use>
    <path d="M-4,0h8M0,-4v8" fill="none" stroke="white" stroke-width="1.5" pointer-events="none"/>
  </g>
  <g id="zoomMin">
    <use xlink:href="#rim" fill="#404040"><set attributeName="fill" to="#808080" begin="zoomminus.mouseover" end="zoomminus.mouseout"/></use>
    <path d="M-4,0h8" fill="none" stroke="white" stroke-width="1.5" pointer-events="none"/>
  </g>
  <g id="arrowUp" transform="translate(30 24)">
    <use xlink:href="#rim"/>
    <path pointer-events="none" fill="none" stroke="white" stroke-width="1.5" d="M0,-3.0v7 M-2.5,-0.5L0,-3.0L2.5,-0.5"/>
  </g>
  <g id="arrowRight" transform="rotate(90) translate(36 -43)">
    <use xlink:href="#rim"/>
    <path pointer-events="none" fill="none" stroke="white" stroke-width="1.5" d="M0,-3.0v7 M-2.5,-0.5L0,-3.0L2.5,-0.5"/>
  </g>
  <g id="arrowDown" transform="rotate(180) translate(-30 -48)">
    <use xlink:href="#rim"/>
    <path pointer-events="none" fill="none" stroke="white" stroke-width="1.5" d="M0,-3.0v7 M-2.5,-0.5L0,-3.0L2.5,-0.5"/>
  </g>
  <g id="arrowLeft" transform="rotate(270) translate(-36 17)">
    <use xlink:href="#rim"/>
    <path pointer-events="none" fill="none" stroke="white" stroke-width="1.5" d="M0,-3.0v7 M-2.5,-0.5L0,-3.0L2.5,-0.5"/>
  </g>
  <g id="resetDef">
    <use xlink:href="#rim2" fill="#404040"><set attributeName="fill" to="#808080" begin="reset.mouseover" end="reset.mouseout"/></use>
  </g>
</defs>
<script type="application/ecmascript">
var viewWidth = 672;
var viewHeight = 131;
</script>
<script type="application/ecmascript" xlink:href="svg.min.js"/>
<svg id="graph" class="graph">
<g id="viewport">
<title>gramer</title>
<polygon fill="white" stroke="transparent" points="-4,4 -4,-127 667.5,-127 667.5,4 -4,4"/>
<!-- s1 -->
<g id="node1" class="node">
<title>s1</title>
<text text-anchor="middle" x="35.5" y="-101.3" font-family="Times,serif" font-size="14.00">Formal</text>
</g>
<!-- s2 -->
<g id="node4" class="node">
<title>s2</title>
<text text-anchor="middle" x="35.5" y="-14.3" font-family="Times,serif" font-size="14.00">Yabancı</text>
</g>
<!-- s1&#45;&gt;s2 -->
<g id="edge2" class="edge">
<title>s1&#45;&gt;s2</title>
<path fill="none" stroke="black" d="M35.5,-86.8C35.5,-75.16 35.5,-59.55 35.5,-46.24"/>
<polygon fill="black" stroke="black" points="39,-46.18 35.5,-36.18 32,-46.18 39,-46.18"/>
<text text-anchor="middle" x="51.5" y="-57.8" font-family="Times,serif" font-size="14.00">sıfat</text>
</g>
<!-- i1 -->
<g id="node2" class="node">
<title>i1</title>
<text text-anchor="middle" x="116.5" y="-101.3" font-family="Times,serif" font-size="14.00">dilleri</text>
</g>
<!-- i2 -->
<g id="node5" class="node">
<title>i2</title>
<text text-anchor="middle" x="116.5" y="-14.3" font-family="Times,serif" font-size="14.00">dil</text>
</g>
<!-- i1&#45;&gt;i2 -->
<g id="edge3" class="edge">
<title>i1&#45;&gt;i2</title>
<path fill="none" stroke="black" d="M116.5,-86.8C116.5,-75.16 116.5,-59.55 116.5,-46.24"/>
<polygon fill="black" stroke="black" points="120,-46.18 116.5,-36.18 113,-46.18 120,-46.18"/>
<text text-anchor="middle" x="132" y="-57.8" font-family="Times,serif" font-size="14.00">isim</text>
</g>
<!-- y1 -->
<g id="node3" class="node">
<title>y1</title>
<text text-anchor="middle" x="220.5" y="-101.3" font-family="Times,serif" font-size="14.00">öğreniyorum.</text>
</g>
<!-- y2 -->
<g id="node6" class="node">
<title>y2</title>
<text text-anchor="middle" x="220.5" y="-14.3" font-family="Times,serif" font-size="14.00">biliyorum.</text>
</g>
<!-- y1&#45;&gt;y2 -->
<g id="edge4" class="edge">
<title>y1&#45;&gt;y2</title>
<path fill="none" stroke="black" d="M220.5,-86.8C220.5,-75.16 220.5,-59.55 220.5,-46.24"/>
<polygon fill="black" stroke="black" points="224,-46.18 220.5,-36.18 217,-46.18 224,-46.18"/>
<text text-anchor="middle" x="230" y="-57.8" font-family="Times,serif" font-size="14.00">fiil</text>
</g>
<!-- r1 -->
<!-- r2 -->
<!-- r1&#45;&gt;r2 -->
<g id="edge1" class="edge">
<title>r1&#45;&gt;r2</title>
<path fill="none" stroke="transparent" d="M322.5,-86.8C322.5,-75.16 322.5,-59.55 322.5,-46.24"/>
<polygon fill="transparent" stroke="transparent" points="326,-46.18 322.5,-36.18 319,-46.18 326,-46.18"/>
<text text-anchor="middle" x="493" y="-57.8" font-family="Times,serif" font-size="14.00">Sözcükleri aynı türden kelimelerle değiştirelim.</text>
</g>
</g>
</svg>

<g id="navigator" transform="translate(0 0)" fill="#404254">
  <rect fill="#f2f5e9" fill-opacity="0.5" stroke="#606060" stroke-width=".5" x="0" y="0" width="60" height="60"/>
  <use id="zoomplus" xlink:href="#zoomPlus" x="17" y="9" onmousedown="handleZoom(evt,'in')"/>
  <use id="zoomminus" xlink:href="#zoomMin" x="42" y="9" onmousedown="handleZoom(evt,'out')"/>
  <use id="reset" xlink:href="#resetDef" x="30" y="36" onmousedown="handleReset()"/>
   <use id="arrowup" xlink:href="#arrowUp" x="0" y="0" onmousedown="handlePan(0,-1)"/>
  <use id="arrowright" xlink:href="#arrowRight" x="0" y="0" onmousedown="handlePan(1,0)"/>
  <use id="arrowdown" xlink:href="#arrowDown" x="0" y="0" onmousedown="handlePan(0,1)"/>
  <use id="arrowleft" xlink:href="#arrowLeft" x="0" y="0" onmousedown="handlePan(-1,0)"/>
</g>
<svg viewBox="0 0 15 15" width="100%" height="30px" preserveAspectRatio="xMaxYMin meet">
 <g id="arrow_out" transform="scale(0.3 0.3)">
  <a xlink:href="dot_inline_dotgraph_3_org.svg" target="_base">
   <rect id="button" ry="5" rx="5" y="6" x="6" height="38" width="38"
        fill="#f2f5e9" fill-opacity="0.5" stroke="#606060" stroke-width="1.0"/>
   <path id="arrow"
     d="M 11.500037,31.436501 C 11.940474,20.09759 22.043105,11.32322 32.158766,21.979434 L 37.068811,17.246167 C 37.068811,17.246167 37.088388,32 37.088388,32 L 22.160133,31.978069 C 22.160133,31.978069 26.997745,27.140456 26.997745,27.140456 C 18.528582,18.264221 13.291696,25.230495 11.500037,31.436501 z"
     style="fill:#404040;"/>
  </a>
 </g>
</svg>

<style type='text/css'>
<![CDATA[
[data-mouse-over-selected='false'] { opacity: 0.7; }
[data-mouse-over-selected='true']  { opacity: 1.0; }
]]>
</style>
<script type="application/ecmascript"><![CDATA[
document.addEventListener('DOMContentLoaded', (event) => {
  highlightEdges();
  highlightAdjacentNodes();
});
]]></script>
</svg>
