<?xml version="1.0" encoding="UTF-8" standalone="no"?>
<!DOCTYPE svg PUBLIC "-//W3C//DTD SVG 1.1//EN"
 "http://www.w3.org/Graphics/SVG/1.1/DTD/svg11.dtd">
<!-- Generated by graphviz version 2.43.0 (0)
 -->
<!-- Title: syntax_analyzer Pages: 1 -->
<svg width="310pt" height="652pt"
 viewBox="0.00 0.00 310.00 652.00" xmlns="http://www.w3.org/2000/svg" xmlns:xlink="http://www.w3.org/1999/xlink">
<g id="graph0" class="graph" transform="scale(1 1) rotate(0) translate(4 648)">
<title>syntax_analyzer</title>
<polygon fill="white" stroke="transparent" points="-4,4 -4,-648 306,-648 306,4 -4,4"/>
<g id="clust1" class="cluster">
<title>cluster_0</title>
<polygon fill="none" stroke="black" points="8,-8 8,-425 294,-425 294,-8 8,-8"/>
</g>
<!-- input -->
<g id="node1" class="node">
<title>input</title>
<polygon fill="none" stroke="black" points="91,-619 91,-640 156,-640 156,-619 91,-619"/>
<text text-anchor="start" x="94" y="-625.8" font-family="Times,serif" font-size="14.00">lexemes</text>
<polygon fill="none" stroke="black" points="156,-619 156,-640 211,-640 211,-619 156,-619"/>
<text text-anchor="start" x="159.5" y="-625.8" font-family="Times,serif" font-size="14.00">tokens</text>
<polygon fill="none" stroke="black" points="91,-598 91,-619 156,-619 156,-598 91,-598"/>
<text text-anchor="start" x="119" y="-604.8" font-family="Times,serif" font-size="14.00">x</text>
<polygon fill="none" stroke="black" points="156,-598 156,-619 211,-619 211,-598 156,-598"/>
<text text-anchor="start" x="159" y="-604.8" font-family="Times,serif" font-size="14.00">IDENT</text>
<polygon fill="none" stroke="black" points="91,-577 91,-598 156,-598 156,-577 91,-577"/>
<text text-anchor="start" x="117" y="-583.8" font-family="Times,serif" font-size="14.00">=</text>
<polygon fill="none" stroke="black" points="156,-577 156,-598 211,-598 211,-577 156,-577"/>
<text text-anchor="start" x="172.5" y="-583.8" font-family="Times,serif" font-size="14.00">EQ</text>
<polygon fill="none" stroke="black" points="91,-556 91,-577 156,-577 156,-556 91,-556"/>
<text text-anchor="start" x="119" y="-562.8" font-family="Times,serif" font-size="14.00">y</text>
<polygon fill="none" stroke="black" points="156,-556 156,-577 211,-577 211,-556 156,-556"/>
<text text-anchor="start" x="159" y="-562.8" font-family="Times,serif" font-size="14.00">IDENT</text>
<polygon fill="none" stroke="black" points="91,-535 91,-556 156,-556 156,-535 91,-535"/>
<text text-anchor="start" x="117" y="-541.8" font-family="Times,serif" font-size="14.00">+</text>
<polygon fill="none" stroke="black" points="156,-535 156,-556 211,-556 211,-535 156,-535"/>
<text text-anchor="start" x="163.5" y="-541.8" font-family="Times,serif" font-size="14.00">PLUS</text>
<polygon fill="none" stroke="black" points="91,-514 91,-535 156,-535 156,-514 91,-514"/>
<text text-anchor="start" x="119.5" y="-520.8" font-family="Times,serif" font-size="14.00">z</text>
<polygon fill="none" stroke="black" points="156,-514 156,-535 211,-535 211,-514 156,-514"/>
<text text-anchor="start" x="159" y="-520.8" font-family="Times,serif" font-size="14.00">IDENT</text>
<polygon fill="none" stroke="black" points="91,-493 91,-514 156,-514 156,-493 91,-493"/>
<text text-anchor="start" x="120" y="-499.8" font-family="Times,serif" font-size="14.00">*</text>
<polygon fill="none" stroke="black" points="156,-493 156,-514 211,-514 211,-493 156,-493"/>
<text text-anchor="start" x="164" y="-499.8" font-family="Times,serif" font-size="14.00">STAR</text>
<polygon fill="none" stroke="black" points="91,-472 91,-493 156,-493 156,-472 91,-472"/>
<text text-anchor="start" x="117" y="-478.8" font-family="Times,serif" font-size="14.00">w</text>
<polygon fill="none" stroke="black" points="156,-472 156,-493 211,-493 211,-472 156,-472"/>
<text text-anchor="start" x="159" y="-478.8" font-family="Times,serif" font-size="14.00">IDENT</text>
</g>
<!-- S -->
<g id="node2" class="node">
<title>S</title>
<text text-anchor="middle" x="151" y="-395.3" font-family="Times,serif" font-size="14.00">⟨S⟩</text>
</g>
<!-- input&#45;&#45;S -->
<g id="edge17" class="edge">
<title>input&#45;&#45;S</title>
<path fill="none" stroke="black" d="M151,-467.99C151,-448.53 151,-429.88 151,-417.05"/>
<text text-anchor="middle" x="208" y="-438.8" font-family="Times,serif" font-size="14.00">Syntax Analysis</text>
</g>
<!-- id1 -->
<g id="node3" class="node">
<title>id1</title>
<text text-anchor="middle" x="43" y="-322.3" font-family="Times,serif" font-size="14.00">id</text>
</g>
<!-- S&#45;&#45;id1 -->
<g id="edge1" class="edge">
<title>S&#45;&#45;id1</title>
<path fill="none" stroke="black" d="M125.13,-380.99C108.16,-369.83 86.04,-355.29 69.03,-344.11"/>
</g>
<!-- eq -->
<g id="node4" class="node">
<title>eq</title>
<text text-anchor="middle" x="115" y="-322.3" font-family="Times,serif" font-size="14.00">=</text>
</g>
<!-- S&#45;&#45;eq -->
<g id="edge2" class="edge">
<title>S&#45;&#45;eq</title>
<path fill="none" stroke="black" d="M142.29,-380.81C136.63,-369.65 129.28,-355.16 123.63,-344.03"/>
</g>
<!-- e1 -->
<g id="node5" class="node">
<title>e1</title>
<text text-anchor="middle" x="187" y="-322.3" font-family="Times,serif" font-size="14.00">⟨E⟩</text>
</g>
<!-- S&#45;&#45;e1 -->
<g id="edge3" class="edge">
<title>S&#45;&#45;e1</title>
<path fill="none" stroke="black" d="M159.71,-380.81C165.37,-369.65 172.72,-355.16 178.37,-344.03"/>
</g>
<!-- semi -->
<g id="node6" class="node">
<title>semi</title>
<text text-anchor="middle" x="259" y="-322.3" font-family="Times,serif" font-size="14.00">;</text>
</g>
<!-- S&#45;&#45;semi -->
<g id="edge4" class="edge">
<title>S&#45;&#45;semi</title>
<path fill="none" stroke="black" d="M176.87,-380.99C193.84,-369.83 215.96,-355.29 232.97,-344.11"/>
</g>
<!-- e2 -->
<g id="node7" class="node">
<title>e2</title>
<text text-anchor="middle" x="43" y="-249.3" font-family="Times,serif" font-size="14.00">⟨E⟩</text>
</g>
<!-- e1&#45;&#45;e2 -->
<g id="edge5" class="edge">
<title>e1&#45;&#45;e2</title>
<path fill="none" stroke="black" d="M159.91,-311.65C134.33,-299.03 96.16,-280.21 70.45,-267.54"/>
</g>
<!-- plus -->
<g id="node8" class="node">
<title>plus</title>
<text text-anchor="middle" x="115" y="-249.3" font-family="Times,serif" font-size="14.00">+</text>
</g>
<!-- e1&#45;&#45;plus -->
<g id="edge6" class="edge">
<title>e1&#45;&#45;plus</title>
<path fill="none" stroke="black" d="M169.57,-307.81C158.25,-296.65 143.56,-282.16 132.27,-271.03"/>
</g>
<!-- t1 -->
<g id="node9" class="node">
<title>t1</title>
<text text-anchor="middle" x="187" y="-249.3" font-family="Times,serif" font-size="14.00">⟨T⟩</text>
</g>
<!-- e1&#45;&#45;t1 -->
<g id="edge7" class="edge">
<title>e1&#45;&#45;t1</title>
<path fill="none" stroke="black" d="M187,-307.81C187,-296.65 187,-282.16 187,-271.03"/>
</g>
<!-- t2 -->
<g id="node13" class="node">
<title>t2</title>
<text text-anchor="middle" x="43" y="-176.3" font-family="Times,serif" font-size="14.00">⟨T⟩</text>
</g>
<!-- e2&#45;&#45;t2 -->
<g id="edge8" class="edge">
<title>e2&#45;&#45;t2</title>
<path fill="none" stroke="black" d="M43,-234.81C43,-223.65 43,-209.16 43,-198.03"/>
</g>
<!-- t3 -->
<g id="node10" class="node">
<title>t3</title>
<text text-anchor="middle" x="115" y="-176.3" font-family="Times,serif" font-size="14.00">⟨T⟩</text>
</g>
<!-- t1&#45;&#45;t3 -->
<g id="edge11" class="edge">
<title>t1&#45;&#45;t3</title>
<path fill="none" stroke="black" d="M169.57,-234.81C158.25,-223.65 143.56,-209.16 132.27,-198.03"/>
</g>
<!-- star -->
<g id="node11" class="node">
<title>star</title>
<text text-anchor="middle" x="187" y="-176.3" font-family="Times,serif" font-size="14.00">*</text>
</g>
<!-- t1&#45;&#45;star -->
<g id="edge12" class="edge">
<title>t1&#45;&#45;star</title>
<path fill="none" stroke="black" d="M187,-234.81C187,-223.65 187,-209.16 187,-198.03"/>
</g>
<!-- f2 -->
<g id="node12" class="node">
<title>f2</title>
<text text-anchor="middle" x="259" y="-176.3" font-family="Times,serif" font-size="14.00">⟨F⟩</text>
</g>
<!-- t1&#45;&#45;f2 -->
<g id="edge13" class="edge">
<title>t1&#45;&#45;f2</title>
<path fill="none" stroke="black" d="M204.43,-234.81C215.75,-223.65 230.44,-209.16 241.73,-198.03"/>
</g>
<!-- f3 -->
<g id="node15" class="node">
<title>f3</title>
<text text-anchor="middle" x="115" y="-103.3" font-family="Times,serif" font-size="14.00">⟨F⟩</text>
</g>
<!-- t3&#45;&#45;f3 -->
<g id="edge14" class="edge">
<title>t3&#45;&#45;f3</title>
<path fill="none" stroke="black" d="M115,-161.81C115,-150.65 115,-136.16 115,-125.03"/>
</g>
<!-- id4 -->
<g id="node18" class="node">
<title>id4</title>
<text text-anchor="middle" x="259" y="-103.3" font-family="Times,serif" font-size="14.00">id</text>
</g>
<!-- f2&#45;&#45;id4 -->
<g id="edge16" class="edge">
<title>f2&#45;&#45;id4</title>
<path fill="none" stroke="black" d="M259,-161.81C259,-150.65 259,-136.16 259,-125.03"/>
</g>
<!-- f1 -->
<g id="node14" class="node">
<title>f1</title>
<text text-anchor="middle" x="43" y="-103.3" font-family="Times,serif" font-size="14.00">⟨F⟩</text>
</g>
<!-- t2&#45;&#45;f1 -->
<g id="edge9" class="edge">
<title>t2&#45;&#45;f1</title>
<path fill="none" stroke="black" d="M43,-161.81C43,-150.65 43,-136.16 43,-125.03"/>
</g>
<!-- id2 -->
<g id="node16" class="node">
<title>id2</title>
<text text-anchor="middle" x="43" y="-30.3" font-family="Times,serif" font-size="14.00">id</text>
</g>
<!-- f1&#45;&#45;id2 -->
<g id="edge10" class="edge">
<title>f1&#45;&#45;id2</title>
<path fill="none" stroke="black" d="M43,-88.81C43,-77.65 43,-63.16 43,-52.03"/>
</g>
<!-- id3 -->
<g id="node17" class="node">
<title>id3</title>
<text text-anchor="middle" x="115" y="-30.3" font-family="Times,serif" font-size="14.00">id</text>
</g>
<!-- f3&#45;&#45;id3 -->
<g id="edge15" class="edge">
<title>f3&#45;&#45;id3</title>
<path fill="none" stroke="black" d="M115,-88.81C115,-77.65 115,-63.16 115,-52.03"/>
</g>
</g>
</svg>
