<?xml version="1.0" encoding="UTF-8" standalone="no"?>
<!DOCTYPE svg PUBLIC "-//W3C//DTD SVG 1.1//EN"
 "http://www.w3.org/Graphics/SVG/1.1/DTD/svg11.dtd">
<!-- Generated by graphviz version 2.43.0 (0)
 -->
<!-- Title: G Pages: 1 -->
<svg width="592pt" height="479pt"
 viewBox="0.00 0.00 592.34 479.00" xmlns="http://www.w3.org/2000/svg" xmlns:xlink="http://www.w3.org/1999/xlink">
<g id="graph0" class="graph" transform="scale(1 1) rotate(0) translate(4 475)">
<title>G</title>
<polygon fill="white" stroke="transparent" points="-4,4 -4,-475 588.34,-475 588.34,4 -4,4"/>
<!-- 1 -->
<g id="node1" class="node">
<title>1</title>
<ellipse fill="none" stroke="black" cx="378.45" cy="-453" rx="32.49" ry="18"/>
<text text-anchor="middle" x="378.45" y="-449.3" font-family="Times,serif" font-size="14.00">stmt</text>
</g>
<!-- 2 -->
<g id="node2" class="node">
<title>2</title>
<ellipse fill="none" stroke="black" cx="340.45" cy="-381" rx="31.7" ry="18"/>
<text text-anchor="middle" x="340.45" y="-377.3" font-family="Times,serif" font-size="14.00">expr</text>
</g>
<!-- 1&#45;&gt;2 -->
<g id="edge1" class="edge">
<title>1&#45;&gt;2</title>
<path fill="none" stroke="black" d="M369.44,-435.41C364.9,-427.04 359.29,-416.71 354.22,-407.37"/>
<polygon fill="black" stroke="black" points="357.23,-405.59 349.39,-398.47 351.08,-408.93 357.23,-405.59"/>
</g>
<!-- 22 -->
<g id="node22" class="node">
<title>22</title>
<polygon fill="none" stroke="black" points="444.45,-399 390.45,-399 390.45,-363 444.45,-363 444.45,-399"/>
<text text-anchor="start" x="414.95" y="-377.3" font-family="Times,serif" font-size="14.00">;</text>
</g>
<!-- 1&#45;&gt;22 -->
<g id="edge21" class="edge">
<title>1&#45;&gt;22</title>
<path fill="none" stroke="black" d="M387.69,-435.41C392.22,-427.28 397.78,-417.31 402.86,-408.18"/>
<polygon fill="black" stroke="black" points="405.92,-409.89 407.73,-399.45 399.8,-406.48 405.92,-409.89"/>
</g>
<!-- 3 -->
<g id="node3" class="node">
<title>3</title>
<ellipse fill="none" stroke="black" cx="259.45" cy="-309" rx="31.7" ry="18"/>
<text text-anchor="middle" x="259.45" y="-305.3" font-family="Times,serif" font-size="14.00">expr</text>
</g>
<!-- 2&#45;&gt;3 -->
<g id="edge2" class="edge">
<title>2&#45;&gt;3</title>
<path fill="none" stroke="black" d="M323.66,-365.5C312.15,-355.55 296.69,-342.19 283.83,-331.07"/>
<polygon fill="black" stroke="black" points="286.06,-328.38 276.21,-324.49 281.49,-333.67 286.06,-328.38"/>
</g>
<!-- 16 -->
<g id="node16" class="node">
<title>16</title>
<polygon fill="none" stroke="black" points="367.45,-327 313.45,-327 313.45,-291 367.45,-291 367.45,-327"/>
<text text-anchor="start" x="337.95" y="-305.3" font-family="Times,serif" font-size="14.00">&#45;</text>
</g>
<!-- 2&#45;&gt;16 -->
<g id="edge15" class="edge">
<title>2&#45;&gt;16</title>
<path fill="none" stroke="black" d="M340.45,-362.7C340.45,-354.98 340.45,-345.71 340.45,-337.11"/>
<polygon fill="black" stroke="black" points="343.95,-337.1 340.45,-327.1 336.95,-337.1 343.95,-337.1"/>
</g>
<!-- 17 -->
<g id="node17" class="node">
<title>17</title>
<ellipse fill="none" stroke="black" cx="420.45" cy="-309" rx="33.29" ry="18"/>
<text text-anchor="middle" x="420.45" y="-305.3" font-family="Times,serif" font-size="14.00">term</text>
</g>
<!-- 2&#45;&gt;17 -->
<g id="edge16" class="edge">
<title>2&#45;&gt;17</title>
<path fill="none" stroke="black" d="M357.02,-365.5C368.21,-355.71 383.17,-342.61 395.76,-331.6"/>
<polygon fill="black" stroke="black" points="398.4,-333.95 403.62,-324.73 393.79,-328.68 398.4,-333.95"/>
</g>
<!-- 4 -->
<g id="node4" class="node">
<title>4</title>
<ellipse fill="none" stroke="black" cx="166.45" cy="-237" rx="31.7" ry="18"/>
<text text-anchor="middle" x="166.45" y="-233.3" font-family="Times,serif" font-size="14.00">expr</text>
</g>
<!-- 3&#45;&gt;4 -->
<g id="edge3" class="edge">
<title>3&#45;&gt;4</title>
<path fill="none" stroke="black" d="M241.07,-294.17C227.32,-283.82 208.3,-269.5 192.91,-257.91"/>
<polygon fill="black" stroke="black" points="194.88,-255.02 184.78,-251.8 190.67,-260.61 194.88,-255.02"/>
</g>
<!-- 10 -->
<g id="node10" class="node">
<title>10</title>
<polygon fill="none" stroke="black" points="279.45,-255 225.45,-255 225.45,-219 279.45,-219 279.45,-255"/>
<text text-anchor="start" x="249.95" y="-233.3" font-family="Times,serif" font-size="14.00">&#45;</text>
</g>
<!-- 3&#45;&gt;10 -->
<g id="edge9" class="edge">
<title>3&#45;&gt;10</title>
<path fill="none" stroke="black" d="M257.72,-290.7C256.95,-282.98 256.02,-273.71 255.16,-265.11"/>
<polygon fill="black" stroke="black" points="258.64,-264.71 254.16,-255.1 251.67,-265.4 258.64,-264.71"/>
</g>
<!-- 11 -->
<g id="node11" class="node">
<title>11</title>
<ellipse fill="none" stroke="black" cx="330.45" cy="-237" rx="33.29" ry="18"/>
<text text-anchor="middle" x="330.45" y="-233.3" font-family="Times,serif" font-size="14.00">term</text>
</g>
<!-- 3&#45;&gt;11 -->
<g id="edge10" class="edge">
<title>3&#45;&gt;11</title>
<path fill="none" stroke="black" d="M274.85,-292.81C284.44,-283.36 296.93,-271.04 307.65,-260.48"/>
<polygon fill="black" stroke="black" points="310.41,-262.67 315.07,-253.16 305.49,-257.69 310.41,-262.67"/>
</g>
<!-- 5 -->
<g id="node5" class="node">
<title>5</title>
<ellipse fill="none" stroke="black" cx="142.45" cy="-164.5" rx="33.29" ry="18"/>
<text text-anchor="middle" x="142.45" y="-160.8" font-family="Times,serif" font-size="14.00">term</text>
</g>
<!-- 4&#45;&gt;5 -->
<g id="edge4" class="edge">
<title>4&#45;&gt;5</title>
<path fill="none" stroke="black" d="M160.64,-218.93C157.9,-210.88 154.56,-201.08 151.5,-192.09"/>
<polygon fill="black" stroke="black" points="154.74,-190.75 148.2,-182.41 148.11,-193 154.74,-190.75"/>
</g>
<!-- 6 -->
<g id="node6" class="node">
<title>6</title>
<ellipse fill="none" stroke="black" cx="34.45" cy="-91.5" rx="34.39" ry="18"/>
<text text-anchor="middle" x="34.45" y="-87.8" font-family="Times,serif" font-size="14.00">atom</text>
</g>
<!-- 5&#45;&gt;6 -->
<g id="edge5" class="edge">
<title>5&#45;&gt;6</title>
<path fill="none" stroke="black" d="M122.13,-150.15C105.57,-139.26 81.97,-123.74 63.42,-111.55"/>
<polygon fill="black" stroke="black" points="65.32,-108.6 55.04,-106.04 61.47,-114.45 65.32,-108.6"/>
</g>
<!-- 8 -->
<g id="node8" class="node">
<title>8</title>
<ellipse fill="none" stroke="black" cx="142.45" cy="-91.5" rx="55.79" ry="18"/>
<text text-anchor="middle" x="142.45" y="-87.8" font-family="Times,serif" font-size="14.00">term_rest</text>
</g>
<!-- 5&#45;&gt;8 -->
<g id="edge7" class="edge">
<title>5&#45;&gt;8</title>
<path fill="none" stroke="black" d="M142.45,-146.31C142.45,-138.29 142.45,-128.55 142.45,-119.57"/>
<polygon fill="black" stroke="black" points="145.95,-119.53 142.45,-109.53 138.95,-119.53 145.95,-119.53"/>
</g>
<!-- 7 -->
<g id="node7" class="node">
<title>7</title>
<polygon fill="none" stroke="black" points="61.45,-36.5 7.45,-36.5 7.45,-0.5 61.45,-0.5 61.45,-36.5"/>
<text text-anchor="start" x="24.95" y="-14.8" font-family="Times,serif" font-size="14.00">10</text>
</g>
<!-- 6&#45;&gt;7 -->
<g id="edge6" class="edge">
<title>6&#45;&gt;7</title>
<path fill="none" stroke="black" d="M34.45,-73.31C34.45,-65.29 34.45,-55.55 34.45,-46.57"/>
<polygon fill="black" stroke="black" points="37.95,-46.53 34.45,-36.53 30.95,-46.53 37.95,-46.53"/>
</g>
<!-- 9 -->
<g id="node9" class="node">
<title>9</title>
<polygon fill="none" stroke="black" points="115.45,-0.5 115.45,-36.5 169.45,-36.5 169.45,-0.5 115.45,-0.5"/>
<text text-anchor="middle" x="142.45" y="-14.8" font-family="Times,serif" font-size="14.00">ε</text>
</g>
<!-- 8&#45;&gt;9 -->
<g id="edge8" class="edge">
<title>8&#45;&gt;9</title>
<path fill="none" stroke="black" d="M142.45,-73.31C142.45,-65.29 142.45,-55.55 142.45,-46.57"/>
<polygon fill="black" stroke="black" points="145.95,-46.53 142.45,-36.53 138.95,-46.53 145.95,-46.53"/>
</g>
<!-- 12 -->
<g id="node12" class="node">
<title>12</title>
<ellipse fill="none" stroke="black" cx="235.45" cy="-164.5" rx="34.39" ry="18"/>
<text text-anchor="middle" x="235.45" y="-160.8" font-family="Times,serif" font-size="14.00">atom</text>
</g>
<!-- 11&#45;&gt;12 -->
<g id="edge11" class="edge">
<title>11&#45;&gt;12</title>
<path fill="none" stroke="black" d="M311.68,-222.07C297.72,-211.71 278.45,-197.41 262.78,-185.78"/>
<polygon fill="black" stroke="black" points="264.62,-182.79 254.5,-179.64 260.45,-188.41 264.62,-182.79"/>
</g>
<!-- 14 -->
<g id="node14" class="node">
<title>14</title>
<ellipse fill="none" stroke="black" cx="343.45" cy="-164.5" rx="55.79" ry="18"/>
<text text-anchor="middle" x="343.45" y="-160.8" font-family="Times,serif" font-size="14.00">term_rest</text>
</g>
<!-- 11&#45;&gt;14 -->
<g id="edge13" class="edge">
<title>11&#45;&gt;14</title>
<path fill="none" stroke="black" d="M333.59,-218.93C335.04,-211.08 336.79,-201.58 338.42,-192.77"/>
<polygon fill="black" stroke="black" points="341.87,-193.37 340.24,-182.9 334.98,-192.1 341.87,-193.37"/>
</g>
<!-- 13 -->
<g id="node13" class="node">
<title>13</title>
<polygon fill="none" stroke="black" points="270.45,-109.5 216.45,-109.5 216.45,-73.5 270.45,-73.5 270.45,-109.5"/>
<text text-anchor="middle" x="243.45" y="-87.8" font-family="Times,serif" font-size="14.00">2</text>
</g>
<!-- 12&#45;&gt;13 -->
<g id="edge12" class="edge">
<title>12&#45;&gt;13</title>
<path fill="none" stroke="black" d="M237.38,-146.31C238.29,-138.29 239.39,-128.55 240.4,-119.57"/>
<polygon fill="black" stroke="black" points="243.89,-119.86 241.53,-109.53 236.93,-119.07 243.89,-119.86"/>
</g>
<!-- 15 -->
<g id="node15" class="node">
<title>15</title>
<polygon fill="none" stroke="black" points="316.45,-73.5 316.45,-109.5 370.45,-109.5 370.45,-73.5 316.45,-73.5"/>
<text text-anchor="middle" x="343.45" y="-87.8" font-family="Times,serif" font-size="14.00">ε</text>
</g>
<!-- 14&#45;&gt;15 -->
<g id="edge14" class="edge">
<title>14&#45;&gt;15</title>
<path fill="none" stroke="black" d="M343.45,-146.31C343.45,-138.29 343.45,-128.55 343.45,-119.57"/>
<polygon fill="black" stroke="black" points="346.95,-119.53 343.45,-109.53 339.95,-119.53 346.95,-119.53"/>
</g>
<!-- 18 -->
<g id="node18" class="node">
<title>18</title>
<ellipse fill="none" stroke="black" cx="420.45" cy="-237" rx="34.39" ry="18"/>
<text text-anchor="middle" x="420.45" y="-233.3" font-family="Times,serif" font-size="14.00">atom</text>
</g>
<!-- 17&#45;&gt;18 -->
<g id="edge17" class="edge">
<title>17&#45;&gt;18</title>
<path fill="none" stroke="black" d="M420.45,-290.7C420.45,-282.98 420.45,-273.71 420.45,-265.11"/>
<polygon fill="black" stroke="black" points="423.95,-265.1 420.45,-255.1 416.95,-265.1 423.95,-265.1"/>
</g>
<!-- 20 -->
<g id="node20" class="node">
<title>20</title>
<ellipse fill="none" stroke="black" cx="528.45" cy="-237" rx="55.79" ry="18"/>
<text text-anchor="middle" x="528.45" y="-233.3" font-family="Times,serif" font-size="14.00">term_rest</text>
</g>
<!-- 17&#45;&gt;20 -->
<g id="edge19" class="edge">
<title>17&#45;&gt;20</title>
<path fill="none" stroke="black" d="M441.02,-294.67C456.58,-284.58 478.26,-270.53 496.14,-258.94"/>
<polygon fill="black" stroke="black" points="498.08,-261.85 504.57,-253.48 494.27,-255.98 498.08,-261.85"/>
</g>
<!-- 19 -->
<g id="node19" class="node">
<title>19</title>
<polygon fill="none" stroke="black" points="471.45,-182.5 417.45,-182.5 417.45,-146.5 471.45,-146.5 471.45,-182.5"/>
<text text-anchor="middle" x="444.45" y="-160.8" font-family="Times,serif" font-size="14.00">3</text>
</g>
<!-- 18&#45;&gt;19 -->
<g id="edge18" class="edge">
<title>18&#45;&gt;19</title>
<path fill="none" stroke="black" d="M426.26,-218.93C428.96,-211 432.24,-201.37 435.26,-192.49"/>
<polygon fill="black" stroke="black" points="438.61,-193.49 438.52,-182.9 431.99,-191.24 438.61,-193.49"/>
</g>
<!-- 21 -->
<g id="node21" class="node">
<title>21</title>
<polygon fill="none" stroke="black" points="501.45,-146.5 501.45,-182.5 555.45,-182.5 555.45,-146.5 501.45,-146.5"/>
<text text-anchor="middle" x="528.45" y="-160.8" font-family="Times,serif" font-size="14.00">ε</text>
</g>
<!-- 20&#45;&gt;21 -->
<g id="edge20" class="edge">
<title>20&#45;&gt;21</title>
<path fill="none" stroke="black" d="M528.45,-218.93C528.45,-211.17 528.45,-201.78 528.45,-193.06"/>
<polygon fill="black" stroke="black" points="531.95,-192.9 528.45,-182.9 524.95,-192.9 531.95,-192.9"/>
</g>
</g>
</svg>
