<?xml version="1.0" encoding="UTF-8" standalone="no"?>
<!DOCTYPE svg PUBLIC "-//W3C//DTD SVG 1.1//EN"
 "http://www.w3.org/Graphics/SVG/1.1/DTD/svg11.dtd">
<!-- Generated by graphviz version 2.43.0 (0)
 -->
<!-- Title: navigation Pages: 1 -->
<svg width="353pt" height="46pt"
 viewBox="0.00 0.00 353.00 46.00" xmlns="http://www.w3.org/2000/svg" xmlns:xlink="http://www.w3.org/1999/xlink">

<svg id="main" version="1.1" xmlns="http://www.w3.org/2000/svg" xmlns:xlink="http://www.w3.org/1999/xlink" xml:space="preserve" onload="init(evt)">
<style type="text/css"><![CDATA[
.node, .edge {opacity: 0.7;}
.node.selected, .edge.selected {opacity: 1;}
.edge:hover path { stroke: red; }
.edge:hover polygon { stroke: red; fill: red; }
]]></style>
<script type="application/ecmascript" xlink:href="svg.min.js"/>
<svg id="graph" class="graph">
<g id="graph0" class="graph" transform="scale(1 1) rotate(0) translate(4 42)">
<title>navigation</title>
<polygon fill="white" stroke="transparent" points="-4,4 -4,-42 349,-42 349,4 -4,4"/>
<!-- A -->
<g id="node1" class="node">
<title>A</title>
<polygon fill="none" stroke="black" points="60,-37 0,-37 0,-1 60,-1 60,-37"/>
<text text-anchor="middle" x="30" y="-15.3" font-family="Times,serif" font-size="14.00">lexing</text>
</g>
<!-- B -->
<g id="node2" class="node">
<title>B</title>
<polygon fill="none" stroke="black" points="218,-38 96,-38 96,0 218,0 218,-38"/>
<text text-anchor="middle" x="157" y="-22.8" font-family="Times,serif" font-size="14.00">parsing</text>
<text text-anchor="middle" x="157" y="-7.8" font-family="Times,serif" font-size="14.00">BURADASINIZ</text>
</g>
<!-- A&#45;&gt;B -->
<g id="edge1" class="edge">
<title>A&#45;&gt;B</title>
<path fill="none" stroke="black" d="M60.31,-19C68.07,-19 76.79,-19 85.72,-19"/>
<polygon fill="black" stroke="black" points="85.87,-22.5 95.87,-19 85.87,-15.5 85.87,-22.5"/>
</g>
<!-- C -->
<g id="node3" class="node">
<title>C</title>
<polygon fill="none" stroke="black" points="345,-37 254,-37 254,-1 345,-1 345,-37"/>
<text text-anchor="middle" x="299.5" y="-15.3" font-family="Times,serif" font-size="14.00">evaluation</text>
</g>
<!-- B&#45;&gt;C -->
<g id="edge2" class="edge">
<title>B&#45;&gt;C</title>
<path fill="none" stroke="black" d="M218.4,-19C226.77,-19 235.32,-19 243.58,-19"/>
<polygon fill="black" stroke="black" points="243.85,-22.5 253.85,-19 243.85,-15.5 243.85,-22.5"/>
</g>
</g>
</svg>
</svg>

<style type='text/css'>
<![CDATA[
[data-mouse-over-selected='false'] { opacity: 0.7; }
[data-mouse-over-selected='true']  { opacity: 1.0; }
]]>
</style>
<script type="application/ecmascript"><![CDATA[
document.addEventListener('DOMContentLoaded', (event) => {
  highlightEdges();
  highlightAdjacentNodes();
});
]]></script>
</svg>
