<?xml version="1.0" encoding="UTF-8" standalone="no"?>
<!DOCTYPE svg PUBLIC "-//W3C//DTD SVG 1.1//EN"
 "http://www.w3.org/Graphics/SVG/1.1/DTD/svg11.dtd">
<!-- Generated by graphviz version 2.43.0 (0)
 -->
<!-- Title: nfa_lexer Pages: 1 -->
<svg width="375pt" height="215pt"
 viewBox="0.00 0.00 374.79 214.60" xmlns="http://www.w3.org/2000/svg" xmlns:xlink="http://www.w3.org/1999/xlink">
<g id="graph0" class="graph" transform="scale(1 1) rotate(0) translate(4 210.6)">
<title>nfa_lexer</title>
<polygon fill="white" stroke="transparent" points="-4,4 -4,-210.6 370.79,-210.6 370.79,4 -4,4"/>
<!-- S -->
<g id="node1" class="node">
<title>S</title>
<ellipse fill="none" stroke="black" cx="18" cy="-88.8" rx="18" ry="18"/>
<text text-anchor="middle" x="18" y="-85.1" font-family="Times,serif" font-size="14.00">S</text>
</g>
<!-- num_S -->
<g id="node2" class="node">
<title>num_S</title>
<ellipse fill="none" stroke="black" cx="98.8" cy="-148.8" rx="20.6" ry="20.6"/>
<text text-anchor="middle" x="98.8" y="-145.1" font-family="Times,serif" font-size="14.00">S₁</text>
</g>
<!-- S&#45;&gt;num_S -->
<g id="edge1" class="edge">
<title>S&#45;&gt;num_S</title>
<path fill="none" stroke="black" d="M32.73,-99.25C43.94,-107.79 60.07,-120.07 73.46,-130.27"/>
<polygon fill="black" stroke="black" points="71.71,-133.33 81.79,-136.61 75.95,-127.76 71.71,-133.33"/>
<text text-anchor="middle" x="57" y="-121.8" font-family="Times,serif" font-size="10.00">ε</text>
</g>
<!-- ident_S -->
<g id="node3" class="node">
<title>ident_S</title>
<ellipse fill="none" stroke="black" cx="98.8" cy="-88.8" rx="20.6" ry="20.6"/>
<text text-anchor="middle" x="98.8" y="-85.1" font-family="Times,serif" font-size="14.00">S₂</text>
</g>
<!-- S&#45;&gt;ident_S -->
<g id="edge2" class="edge">
<title>S&#45;&gt;ident_S</title>
<path fill="none" stroke="black" d="M36.1,-88.8C45.33,-88.8 57,-88.8 67.7,-88.8"/>
<polygon fill="black" stroke="black" points="67.95,-92.3 77.95,-88.8 67.95,-85.3 67.95,-92.3"/>
<text text-anchor="middle" x="57" y="-91.8" font-family="Times,serif" font-size="10.00">ε</text>
</g>
<!-- if_S -->
<g id="node4" class="node">
<title>if_S</title>
<ellipse fill="none" stroke="black" cx="98.8" cy="-27.8" rx="20.6" ry="20.6"/>
<text text-anchor="middle" x="98.8" y="-24.1" font-family="Times,serif" font-size="14.00">S₃</text>
</g>
<!-- S&#45;&gt;if_S -->
<g id="edge3" class="edge">
<title>S&#45;&gt;if_S</title>
<path fill="none" stroke="black" d="M32.73,-78.17C44.05,-69.41 60.37,-56.77 73.84,-46.34"/>
<polygon fill="black" stroke="black" points="76.02,-49.08 81.79,-40.19 71.74,-43.55 76.02,-49.08"/>
<text text-anchor="middle" x="57" y="-62.8" font-family="Times,serif" font-size="10.00">ε</text>
</g>
<!-- num_A -->
<g id="node8" class="node">
<title>num_A</title>
<ellipse fill="none" stroke="black" cx="232.39" cy="-181.8" rx="20.6" ry="20.6"/>
<text text-anchor="middle" x="232.39" y="-178.1" font-family="Times,serif" font-size="14.00">A₁</text>
</g>
<!-- num_S&#45;&gt;num_A -->
<g id="edge8" class="edge">
<title>num_S&#45;&gt;num_A</title>
<path fill="none" stroke="black" d="M118.97,-154.59C124.92,-156.33 131.51,-158.2 137.6,-159.8 159.06,-165.44 183.48,-171.14 202.02,-175.33"/>
<polygon fill="black" stroke="black" points="201.4,-178.77 211.92,-177.55 202.93,-171.94 201.4,-178.77"/>
<text text-anchor="middle" x="163.6" y="-174.8" font-family="Times,serif" font-size="10.00">(+|&#45;)</text>
</g>
<!-- num_S&#45;&gt;num_A -->
<g id="edge9" class="edge">
<title>num_S&#45;&gt;num_A</title>
<path fill="none" stroke="black" d="M119.38,-144.38C138.03,-141.08 166.59,-138.44 189.6,-146.8 197.06,-149.51 204.12,-154.2 210.24,-159.28"/>
<polygon fill="black" stroke="black" points="208.2,-162.16 217.95,-166.31 212.91,-156.99 208.2,-162.16"/>
<text text-anchor="middle" x="163.6" y="-149.8" font-family="Times,serif" font-size="10.00">ε</text>
</g>
<!-- ident_A -->
<g id="node7" class="node">
<title>ident_A</title>
<ellipse fill="none" stroke="black" cx="232.39" cy="-88.8" rx="20.63" ry="20.63"/>
<ellipse fill="none" stroke="black" cx="232.39" cy="-88.8" rx="24.6" ry="24.6"/>
<text text-anchor="middle" x="232.39" y="-85.1" font-family="Times,serif" font-size="14.00">A₂</text>
</g>
<!-- ident_S&#45;&gt;ident_A -->
<g id="edge6" class="edge">
<title>ident_S&#45;&gt;ident_A</title>
<path fill="none" stroke="black" d="M119.78,-88.8C140.29,-88.8 172.59,-88.8 197.18,-88.8"/>
<polygon fill="black" stroke="black" points="197.19,-92.3 207.19,-88.8 197.19,-85.3 197.19,-92.3"/>
<text text-anchor="middle" x="163.6" y="-91.8" font-family="Times,serif" font-size="10.00">(a&#45;z|A&#45;Z|_)</text>
</g>
<!-- if_A -->
<g id="node5" class="node">
<title>if_A</title>
<ellipse fill="none" stroke="black" cx="232.39" cy="-24.8" rx="20.6" ry="20.6"/>
<text text-anchor="middle" x="232.39" y="-21.1" font-family="Times,serif" font-size="14.00">A₃</text>
</g>
<!-- if_S&#45;&gt;if_A -->
<g id="edge4" class="edge">
<title>if_S&#45;&gt;if_A</title>
<path fill="none" stroke="black" d="M119.78,-27.34C141.43,-26.85 176.2,-26.06 201.18,-25.49"/>
<polygon fill="black" stroke="black" points="201.3,-28.99 211.22,-25.26 201.14,-21.99 201.3,-28.99"/>
<text text-anchor="middle" x="163.6" y="-30.8" font-family="Times,serif" font-size="10.00">i</text>
</g>
<!-- if_B -->
<g id="node6" class="node">
<title>if_B</title>
<ellipse fill="none" stroke="black" cx="341.99" cy="-24.8" rx="20.63" ry="20.63"/>
<ellipse fill="none" stroke="black" cx="341.99" cy="-24.8" rx="24.6" ry="24.6"/>
<text text-anchor="middle" x="341.99" y="-21.1" font-family="Times,serif" font-size="14.00">B₃</text>
</g>
<!-- if_A&#45;&gt;if_B -->
<g id="edge5" class="edge">
<title>if_A&#45;&gt;if_B</title>
<path fill="none" stroke="black" d="M253.38,-24.8C268.28,-24.8 288.99,-24.8 306.54,-24.8"/>
<polygon fill="black" stroke="black" points="306.97,-28.3 316.97,-24.8 306.97,-21.3 306.97,-28.3"/>
<text text-anchor="middle" x="287.19" y="-27.8" font-family="Times,serif" font-size="10.00">f</text>
</g>
<!-- ident_A&#45;&gt;ident_A -->
<g id="edge7" class="edge">
<title>ident_A&#45;&gt;ident_A</title>
<path fill="none" stroke="black" d="M222.47,-111.69C221.39,-122.32 224.7,-131.6 232.39,-131.6 237.45,-131.6 240.61,-127.6 241.88,-121.85"/>
<polygon fill="black" stroke="black" points="245.38,-121.84 242.32,-111.69 238.39,-121.53 245.38,-121.84"/>
<text text-anchor="middle" x="232.39" y="-134.6" font-family="Times,serif" font-size="10.00">(a&#45;z|A&#45;Z|_|0&#45;9)</text>
</g>
<!-- num_B -->
<g id="node9" class="node">
<title>num_B</title>
<ellipse fill="none" stroke="black" cx="341.99" cy="-181.8" rx="20.63" ry="20.63"/>
<ellipse fill="none" stroke="black" cx="341.99" cy="-181.8" rx="24.6" ry="24.6"/>
<text text-anchor="middle" x="341.99" y="-178.1" font-family="Times,serif" font-size="14.00">B₁</text>
</g>
<!-- num_A&#45;&gt;num_B -->
<g id="edge10" class="edge">
<title>num_A&#45;&gt;num_B</title>
<path fill="none" stroke="black" d="M253.38,-181.8C268.28,-181.8 288.99,-181.8 306.54,-181.8"/>
<polygon fill="black" stroke="black" points="306.97,-185.3 316.97,-181.8 306.97,-178.3 306.97,-185.3"/>
<text text-anchor="middle" x="287.19" y="-184.8" font-family="Times,serif" font-size="10.00">(0&#45;9)</text>
</g>
<!-- num_B&#45;&gt;num_A -->
<g id="edge11" class="edge">
<title>num_B&#45;&gt;num_A</title>
<path fill="none" stroke="black" d="M318.82,-172.24C312.59,-170 305.72,-167.93 299.19,-166.8 288.68,-164.97 285.7,-164.97 275.19,-166.8 270.63,-167.59 265.9,-168.84 261.34,-170.29"/>
<polygon fill="black" stroke="black" points="260.02,-167.04 251.75,-173.67 262.34,-173.64 260.02,-167.04"/>
<text text-anchor="middle" x="287.19" y="-169.8" font-family="Times,serif" font-size="10.00">ε</text>
</g>
</g>
</svg>
