<?xml version="1.0" encoding="UTF-8" standalone="no"?>
<!DOCTYPE svg PUBLIC "-//W3C//DTD SVG 1.1//EN"
 "http://www.w3.org/Graphics/SVG/1.1/DTD/svg11.dtd">
<!-- Generated by graphviz version 2.43.0 (0)
 -->
<!-- Title: dfa_combined_lexer Pages: 1 -->
<svg width="484pt" height="235pt"
 viewBox="0.00 0.00 484.00 235.00" xmlns="http://www.w3.org/2000/svg" xmlns:xlink="http://www.w3.org/1999/xlink">
<g id="graph0" class="graph" transform="scale(1 1) rotate(0) translate(4 231)">
<title>dfa_combined_lexer</title>
<polygon fill="white" stroke="transparent" points="-4,4 -4,-231 480,-231 480,4 -4,4"/>
<!-- S -->
<g id="node1" class="node">
<title>S</title>
<ellipse fill="none" stroke="black" cx="18" cy="-95" rx="18" ry="18"/>
<text text-anchor="middle" x="18" y="-91.3" font-family="Times,serif" font-size="14.00">S</text>
</g>
<!-- A -->
<g id="node2" class="node">
<title>A</title>
<ellipse fill="none" stroke="black" cx="117" cy="-158" rx="18" ry="18"/>
<ellipse fill="none" stroke="black" cx="117" cy="-158" rx="22" ry="22"/>
<text text-anchor="middle" x="117" y="-154.3" font-family="Times,serif" font-size="14.00">A</text>
</g>
<!-- S&#45;&gt;A -->
<g id="edge1" class="edge">
<title>S&#45;&gt;A</title>
<path fill="none" stroke="black" d="M32.32,-105.94C38.73,-111.03 46.61,-117.04 54,-122 64.87,-129.3 77.27,-136.68 88.12,-142.84"/>
<polygon fill="black" stroke="black" points="86.73,-146.08 97.16,-147.91 90.15,-139.97 86.73,-146.08"/>
<text text-anchor="middle" x="65.5" y="-138" font-family="Times,serif" font-size="10.00">i</text>
</g>
<!-- C -->
<g id="node4" class="node">
<title>C</title>
<ellipse fill="none" stroke="black" cx="454" cy="-154" rx="18" ry="18"/>
<ellipse fill="none" stroke="black" cx="454" cy="-154" rx="22" ry="22"/>
<text text-anchor="middle" x="454" y="-150.3" font-family="Times,serif" font-size="14.00">C</text>
</g>
<!-- S&#45;&gt;C -->
<g id="edge3" class="edge">
<title>S&#45;&gt;C</title>
<path fill="none" stroke="black" d="M36.01,-97.31C101.39,-106.2 337.05,-138.24 422.11,-149.8"/>
<polygon fill="black" stroke="black" points="421.79,-153.29 432.17,-151.17 422.73,-146.35 421.79,-153.29"/>
<text text-anchor="middle" x="189.5" y="-125" font-family="Times,serif" font-size="10.00">(a&#45;z|A&#45;Z|_) &#45; i</text>
</g>
<!-- D -->
<g id="node5" class="node">
<title>D</title>
<ellipse fill="none" stroke="black" cx="117" cy="-62" rx="18.4" ry="18.4"/>
<text text-anchor="middle" x="117" y="-58.3" font-family="Times,serif" font-size="14.00">D</text>
</g>
<!-- S&#45;&gt;D -->
<g id="edge6" class="edge">
<title>S&#45;&gt;D</title>
<path fill="none" stroke="black" d="M35.38,-89.37C41.25,-87.36 47.92,-85.07 54,-83 65.78,-78.99 78.82,-74.56 89.89,-70.82"/>
<polygon fill="black" stroke="black" points="91.06,-74.12 99.42,-67.6 88.82,-67.49 91.06,-74.12"/>
<text text-anchor="middle" x="65.5" y="-86" font-family="Times,serif" font-size="10.00">(+|&#45;)</text>
</g>
<!-- E -->
<g id="node6" class="node">
<title>E</title>
<ellipse fill="none" stroke="black" cx="282.5" cy="-22" rx="18" ry="18"/>
<ellipse fill="none" stroke="black" cx="282.5" cy="-22" rx="22" ry="22"/>
<text text-anchor="middle" x="282.5" y="-18.3" font-family="Times,serif" font-size="14.00">E</text>
</g>
<!-- S&#45;&gt;E -->
<g id="edge7" class="edge">
<title>S&#45;&gt;E</title>
<path fill="none" stroke="black" d="M29.09,-80.51C42.06,-63.3 66.34,-35.48 95,-24 146.51,-3.36 212.64,-9.46 250.73,-15.75"/>
<polygon fill="black" stroke="black" points="250.24,-19.21 260.69,-17.5 251.45,-12.32 250.24,-19.21"/>
<text text-anchor="middle" x="117" y="-27" font-family="Times,serif" font-size="10.00">(0&#45;9)</text>
</g>
<!-- B -->
<g id="node3" class="node">
<title>B</title>
<ellipse fill="none" stroke="black" cx="282.5" cy="-205" rx="18" ry="18"/>
<ellipse fill="none" stroke="black" cx="282.5" cy="-205" rx="22" ry="22"/>
<text text-anchor="middle" x="282.5" y="-201.3" font-family="Times,serif" font-size="14.00">B</text>
</g>
<!-- A&#45;&gt;B -->
<g id="edge2" class="edge">
<title>A&#45;&gt;B</title>
<path fill="none" stroke="black" d="M138.38,-163.86C166.73,-172.01 218.28,-186.83 251.16,-196.28"/>
<polygon fill="black" stroke="black" points="250.55,-199.74 261.12,-199.14 252.48,-193.02 250.55,-199.74"/>
<text text-anchor="middle" x="189.5" y="-190" font-family="Times,serif" font-size="10.00">f</text>
</g>
<!-- A&#45;&gt;C -->
<g id="edge4" class="edge">
<title>A&#45;&gt;C</title>
<path fill="none" stroke="black" d="M139.21,-157.75C196.41,-157.06 354.09,-155.18 421.63,-154.37"/>
<polygon fill="black" stroke="black" points="421.71,-157.87 431.67,-154.25 421.63,-150.87 421.71,-157.87"/>
<text text-anchor="middle" x="282.5" y="-159" font-family="Times,serif" font-size="10.00">(a&#45;z|A&#45;Z|_|0&#45;9) &#45; f</text>
</g>
<!-- B&#45;&gt;C -->
<g id="edge5" class="edge">
<title>B&#45;&gt;C</title>
<path fill="none" stroke="black" d="M303.97,-199.66C329.78,-192.82 375.43,-180.37 414,-168 417.15,-166.99 420.43,-165.89 423.69,-164.77"/>
<polygon fill="black" stroke="black" points="424.99,-168.02 433.25,-161.39 422.65,-161.42 424.99,-168.02"/>
<text text-anchor="middle" x="378.5" y="-191" font-family="Times,serif" font-size="10.00">(a&#45;z|A&#45;Z|_|0&#45;9)</text>
</g>
<!-- D&#45;&gt;E -->
<g id="edge8" class="edge">
<title>D&#45;&gt;E</title>
<path fill="none" stroke="black" d="M134.88,-57.87C162.24,-51.18 216.65,-37.87 250.94,-29.48"/>
<polygon fill="black" stroke="black" points="252.01,-32.82 260.89,-27.04 250.34,-26.02 252.01,-32.82"/>
<text text-anchor="middle" x="189.5" y="-56" font-family="Times,serif" font-size="10.00">(0&#45;9)</text>
</g>
<!-- E&#45;&gt;E -->
<g id="edge9" class="edge">
<title>E&#45;&gt;E</title>
<path fill="none" stroke="black" d="M267.29,-38.02C261.98,-49.96 267.05,-62 282.5,-62 293.61,-62 299.35,-55.78 299.73,-47.85"/>
<polygon fill="black" stroke="black" points="303.15,-47.11 297.71,-38.02 296.29,-48.52 303.15,-47.11"/>
<text text-anchor="middle" x="282.5" y="-65" font-family="Times,serif" font-size="10.00">(0&#45;9)</text>
</g>
</g>
</svg>
