<?xml version="1.0" encoding="UTF-8" standalone="no"?>
<!DOCTYPE svg PUBLIC "-//W3C//DTD SVG 1.1//EN"
 "http://www.w3.org/Graphics/SVG/1.1/DTD/svg11.dtd">
<!-- Generated by graphviz version 2.43.0 (0)
 -->
<!-- Title: ast_expression_tree Pages: 1 -->
<svg width="278pt" height="332pt"
 viewBox="0.00 0.00 278.00 332.00" xmlns="http://www.w3.org/2000/svg" xmlns:xlink="http://www.w3.org/1999/xlink">
<g id="graph0" class="graph" transform="scale(1 1) rotate(0) translate(4 328)">
<title>ast_expression_tree</title>
<polygon fill="white" stroke="transparent" points="-4,4 -4,-328 274,-328 274,4 -4,4"/>
<!-- add_expr -->
<g id="node1" class="node">
<title>add_expr</title>
<text text-anchor="start" x="56.5" y="-302.3" font-family="Times,serif" font-size="14.00">+</text>
</g>
<!-- add_num1 -->
<g id="node2" class="node">
<title>add_num1</title>
<text text-anchor="middle" x="27" y="-230.3" font-family="Times,serif" font-size="14.00">1</text>
</g>
<!-- add_expr&#45;&#45;add_num1 -->
<g id="edge1" class="edge">
<title>add_expr&#45;&#45;add_num1</title>
<path fill="none" stroke="black" d="M54.1,-287.7C48.52,-276.85 41.36,-262.92 35.8,-252.1"/>
</g>
<!-- div_expr -->
<g id="node3" class="node">
<title>div_expr</title>
<text text-anchor="start" x="96.5" y="-230.3" font-family="Times,serif" font-size="14.00">/</text>
</g>
<!-- add_expr&#45;&#45;div_expr -->
<g id="edge2" class="edge">
<title>add_expr&#45;&#45;div_expr</title>
<path fill="none" stroke="black" d="M71.9,-287.7C77.48,-276.85 84.64,-262.92 90.2,-252.1"/>
</g>
<!-- div_num1 -->
<g id="node4" class="node">
<title>div_num1</title>
<text text-anchor="middle" x="63" y="-158.3" font-family="Times,serif" font-size="14.00">3</text>
</g>
<!-- div_expr&#45;&#45;div_num1 -->
<g id="edge3" class="edge">
<title>div_expr&#45;&#45;div_num1</title>
<path fill="none" stroke="black" d="M90.1,-215.7C84.52,-204.85 77.36,-190.92 71.8,-180.1"/>
</g>
<!-- mult_expr -->
<g id="node5" class="node">
<title>mult_expr</title>
<text text-anchor="start" x="131.5" y="-158.3" font-family="Times,serif" font-size="14.00">*</text>
</g>
<!-- div_expr&#45;&#45;mult_expr -->
<g id="edge4" class="edge">
<title>div_expr&#45;&#45;mult_expr</title>
<path fill="none" stroke="black" d="M107.9,-215.7C113.48,-204.85 120.64,-190.92 126.2,-180.1"/>
</g>
<!-- add2_expr -->
<g id="node6" class="node">
<title>add2_expr</title>
<text text-anchor="start" x="92.5" y="-86.3" font-family="Times,serif" font-size="14.00">+</text>
</g>
<!-- mult_expr&#45;&#45;add2_expr -->
<g id="edge5" class="edge">
<title>mult_expr&#45;&#45;add2_expr</title>
<path fill="none" stroke="black" d="M126.1,-143.7C120.52,-132.85 113.36,-118.92 107.8,-108.1"/>
</g>
<!-- exp_expr -->
<g id="node9" class="node">
<title>exp_expr</title>
<text text-anchor="start" x="164.5" y="-86.3" font-family="Times,serif" font-size="14.00">^</text>
</g>
<!-- mult_expr&#45;&#45;exp_expr -->
<g id="edge6" class="edge">
<title>mult_expr&#45;&#45;exp_expr</title>
<path fill="none" stroke="black" d="M143.9,-143.7C149.48,-132.85 156.64,-118.92 162.2,-108.1"/>
</g>
<!-- add2_num1 -->
<g id="node7" class="node">
<title>add2_num1</title>
<text text-anchor="middle" x="27" y="-14.3" font-family="Times,serif" font-size="14.00">2</text>
</g>
<!-- add2_expr&#45;&#45;add2_num1 -->
<g id="edge7" class="edge">
<title>add2_expr&#45;&#45;add2_num1</title>
<path fill="none" stroke="black" d="M81.2,-71.7C70.04,-60.85 55.71,-46.92 44.59,-36.1"/>
</g>
<!-- add2_num2 -->
<g id="node8" class="node">
<title>add2_num2</title>
<text text-anchor="middle" x="99" y="-14.3" font-family="Times,serif" font-size="14.00">1</text>
</g>
<!-- add2_expr&#45;&#45;add2_num2 -->
<g id="edge8" class="edge">
<title>add2_expr&#45;&#45;add2_num2</title>
<path fill="none" stroke="black" d="M99,-71.7C99,-60.85 99,-46.92 99,-36.1"/>
</g>
<!-- exp_num1 -->
<g id="node10" class="node">
<title>exp_num1</title>
<text text-anchor="middle" x="171" y="-14.3" font-family="Times,serif" font-size="14.00">4</text>
</g>
<!-- exp_expr&#45;&#45;exp_num1 -->
<g id="edge9" class="edge">
<title>exp_expr&#45;&#45;exp_num1</title>
<path fill="none" stroke="black" d="M171,-71.7C171,-60.85 171,-46.92 171,-36.1"/>
</g>
<!-- exp_num2 -->
<g id="node11" class="node">
<title>exp_num2</title>
<text text-anchor="middle" x="243" y="-14.3" font-family="Times,serif" font-size="14.00">3</text>
</g>
<!-- exp_expr&#45;&#45;exp_num2 -->
<g id="edge10" class="edge">
<title>exp_expr&#45;&#45;exp_num2</title>
<path fill="none" stroke="black" d="M188.8,-71.7C199.96,-60.85 214.29,-46.92 225.41,-36.1"/>
</g>
</g>
</svg>
