<?xml version="1.0" encoding="UTF-8" standalone="no"?>
<!DOCTYPE svg PUBLIC "-//W3C//DTD SVG 1.1//EN"
 "http://www.w3.org/Graphics/SVG/1.1/DTD/svg11.dtd">
<!-- Generated by graphviz version 2.43.0 (0)
 -->
<!-- Title: ast_assignment Pages: 1 -->
<svg width="292pt" height="332pt"
 viewBox="0.00 0.00 292.00 332.00" xmlns="http://www.w3.org/2000/svg" xmlns:xlink="http://www.w3.org/1999/xlink">
<g id="graph0" class="graph" transform="scale(1 1) rotate(0) translate(4 328)">
<title>ast_assignment</title>
<polygon fill="white" stroke="transparent" points="-4,4 -4,-328 288,-328 288,4 -4,4"/>
<!-- if_stmt -->
<g id="node1" class="node">
<title>if_stmt</title>
<text text-anchor="start" x="128.5" y="-302.3" font-family="Times,serif" font-size="14.00">⟨if⟩</text>
</g>
<!-- if_cond -->
<g id="node2" class="node">
<title>if_cond</title>
<text text-anchor="start" x="68" y="-230.3" font-family="Times,serif" font-size="14.00">⟨equals⟩</text>
</g>
<!-- if_stmt&#45;&#45;if_cond -->
<g id="edge1" class="edge">
<title>if_stmt&#45;&#45;if_cond</title>
<path fill="none" stroke="black" d="M128.62,-287.7C122.11,-276.85 113.75,-262.92 107.26,-252.1"/>
</g>
<!-- if_then -->
<g id="node3" class="node">
<title>if_then</title>
<text text-anchor="start" x="160.5" y="-230.3" font-family="Times,serif" font-size="14.00">⟨then⟩</text>
</g>
<!-- if_stmt&#45;&#45;if_then -->
<g id="edge2" class="edge">
<title>if_stmt&#45;&#45;if_then</title>
<path fill="none" stroke="black" d="M149.63,-287.7C156.29,-276.85 164.85,-262.92 171.49,-252.1"/>
</g>
<!-- cond_lhs -->
<g id="node4" class="node">
<title>cond_lhs</title>
<text text-anchor="middle" x="27" y="-158.3" font-family="Times,serif" font-size="14.00">x</text>
</g>
<!-- if_cond&#45;&#45;cond_lhs -->
<g id="edge3" class="edge">
<title>if_cond&#45;&#45;cond_lhs</title>
<path fill="none" stroke="black" d="M79.7,-215.7C68.85,-204.85 54.92,-190.92 44.1,-180.1"/>
</g>
<!-- cond_rhs -->
<g id="node5" class="node">
<title>cond_rhs</title>
<text text-anchor="middle" x="99" y="-158.3" font-family="Times,serif" font-size="14.00">&#45;1</text>
</g>
<!-- if_cond&#45;&#45;cond_rhs -->
<g id="edge4" class="edge">
<title>if_cond&#45;&#45;cond_rhs</title>
<path fill="none" stroke="black" d="M97.49,-215.7C97.8,-204.85 98.2,-190.92 98.51,-180.1"/>
</g>
<!-- asgn_stmt -->
<g id="node6" class="node">
<title>asgn_stmt</title>
<text text-anchor="start" x="153.5" y="-158.3" font-family="Times,serif" font-size="14.00">⟨assign⟩</text>
</g>
<!-- if_then&#45;&#45;asgn_stmt -->
<g id="edge5" class="edge">
<title>if_then&#45;&#45;asgn_stmt</title>
<path fill="none" stroke="black" d="M182,-215.7C182,-204.85 182,-190.92 182,-180.1"/>
</g>
<!-- asgn_lvalue -->
<g id="node7" class="node">
<title>asgn_lvalue</title>
<text text-anchor="middle" x="146" y="-86.3" font-family="Times,serif" font-size="14.00">y</text>
</g>
<!-- asgn_stmt&#45;&#45;asgn_lvalue -->
<g id="edge6" class="edge">
<title>asgn_stmt&#45;&#45;asgn_lvalue</title>
<path fill="none" stroke="black" d="M173.1,-143.7C167.52,-132.85 160.36,-118.92 154.8,-108.1"/>
</g>
<!-- add_expr -->
<g id="node8" class="node">
<title>add_expr</title>
<text text-anchor="start" x="211.5" y="-86.3" font-family="Times,serif" font-size="14.00">+</text>
</g>
<!-- asgn_stmt&#45;&#45;add_expr -->
<g id="edge7" class="edge">
<title>asgn_stmt&#45;&#45;add_expr</title>
<path fill="none" stroke="black" d="M190.9,-143.7C196.48,-132.85 203.64,-118.92 209.2,-108.1"/>
</g>
<!-- add_num1 -->
<g id="node9" class="node">
<title>add_num1</title>
<text text-anchor="middle" x="181" y="-14.3" font-family="Times,serif" font-size="14.00">2</text>
</g>
<!-- add_expr&#45;&#45;add_num1 -->
<g id="edge8" class="edge">
<title>add_expr&#45;&#45;add_num1</title>
<path fill="none" stroke="black" d="M208.85,-71.7C203.12,-60.85 195.76,-46.92 190.04,-36.1"/>
</g>
<!-- add_num2 -->
<g id="node10" class="node">
<title>add_num2</title>
<text text-anchor="middle" x="255" y="-14.3" font-family="Times,serif" font-size="14.00">func()</text>
</g>
<!-- add_expr&#45;&#45;add_num2 -->
<g id="edge9" class="edge">
<title>add_expr&#45;&#45;add_num2</title>
<path fill="none" stroke="black" d="M227.15,-71.7C232.88,-60.85 240.24,-46.92 245.96,-36.1"/>
</g>
</g>
</svg>
