<?xml version="1.0" encoding="UTF-8" standalone="no"?>
<!DOCTYPE svg PUBLIC "-//W3C//DTD SVG 1.1//EN"
 "http://www.w3.org/Graphics/SVG/1.1/DTD/svg11.dtd">
<!-- Generated by graphviz version 2.43.0 (0)
 -->
<!-- Title: ast_expression_tree Pages: 1 -->
<svg width="484pt" height="208pt"
 viewBox="0.00 0.00 484.00 208.00" xmlns="http://www.w3.org/2000/svg" xmlns:xlink="http://www.w3.org/1999/xlink">
<g id="graph0" class="graph" transform="scale(1 1) rotate(0) translate(4 204)">
<title>ast_expression_tree</title>
<polygon fill="white" stroke="transparent" points="-4,4 -4,-204 480,-204 480,4 -4,4"/>
<!-- S -->
<g id="node1" class="node">
<title>S</title>
<ellipse fill="none" stroke="black" cx="18" cy="-68" rx="18" ry="18"/>
<text text-anchor="middle" x="18" y="-64.3" font-family="Times,serif" font-size="14.00">S</text>
</g>
<!-- A -->
<g id="node2" class="node">
<title>A</title>
<ellipse fill="none" stroke="black" cx="117" cy="-131" rx="18" ry="18"/>
<ellipse fill="none" stroke="black" cx="117" cy="-131" rx="22" ry="22"/>
<text text-anchor="middle" x="117" y="-127.3" font-family="Times,serif" font-size="14.00">A</text>
</g>
<!-- S&#45;&gt;A -->
<g id="edge1" class="edge">
<title>S&#45;&gt;A</title>
<path fill="none" stroke="black" d="M32.32,-78.94C38.73,-84.03 46.61,-90.04 54,-95 64.87,-102.3 77.27,-109.68 88.12,-115.84"/>
<polygon fill="black" stroke="black" points="86.73,-119.08 97.16,-120.91 90.15,-112.97 86.73,-119.08"/>
<text text-anchor="middle" x="65.5" y="-111" font-family="Times,serif" font-size="10.00">i</text>
</g>
<!-- C -->
<g id="node4" class="node">
<title>C</title>
<ellipse fill="none" stroke="black" cx="454" cy="-127" rx="18" ry="18"/>
<ellipse fill="none" stroke="black" cx="454" cy="-127" rx="22" ry="22"/>
<text text-anchor="middle" x="454" y="-123.3" font-family="Times,serif" font-size="14.00">C</text>
</g>
<!-- S&#45;&gt;C -->
<g id="edge3" class="edge">
<title>S&#45;&gt;C</title>
<path fill="none" stroke="black" d="M36.01,-70.31C101.39,-79.2 337.05,-111.24 422.11,-122.8"/>
<polygon fill="black" stroke="black" points="421.79,-126.29 432.17,-124.17 422.73,-119.35 421.79,-126.29"/>
<text text-anchor="middle" x="189.5" y="-98" font-family="Times,serif" font-size="10.00">(a&#45;z|A&#45;Z|_) &#45; i</text>
</g>
<!-- D -->
<g id="node5" class="node">
<title>D</title>
<ellipse fill="none" stroke="black" cx="117" cy="-28" rx="18.4" ry="18.4"/>
<text text-anchor="middle" x="117" y="-24.3" font-family="Times,serif" font-size="14.00">D</text>
</g>
<!-- S&#45;&gt;D -->
<g id="edge6" class="edge">
<title>S&#45;&gt;D</title>
<path fill="none" stroke="black" d="M35.02,-61.39C50.04,-55.2 72.76,-45.83 90.32,-38.59"/>
<polygon fill="black" stroke="black" points="92.05,-41.66 99.96,-34.61 89.38,-35.19 92.05,-41.66"/>
<text text-anchor="middle" x="65.5" y="-56" font-family="Times,serif" font-size="10.00">(+|&#45;)</text>
</g>
<!-- S&#45;&gt;D -->
<g id="edge7" class="edge">
<title>S&#45;&gt;D</title>
<path fill="none" stroke="black" d="M28.39,-52.97C34.54,-44.58 43.4,-34.85 54,-30 64.69,-25.11 77.53,-24.02 88.74,-24.39"/>
<polygon fill="black" stroke="black" points="88.66,-27.89 98.88,-25.11 89.15,-20.91 88.66,-27.89"/>
<text text-anchor="middle" x="65.5" y="-33" font-family="Times,serif" font-size="10.00">ε</text>
</g>
<!-- B -->
<g id="node3" class="node">
<title>B</title>
<ellipse fill="none" stroke="black" cx="282.5" cy="-178" rx="18" ry="18"/>
<ellipse fill="none" stroke="black" cx="282.5" cy="-178" rx="22" ry="22"/>
<text text-anchor="middle" x="282.5" y="-174.3" font-family="Times,serif" font-size="14.00">B</text>
</g>
<!-- A&#45;&gt;B -->
<g id="edge2" class="edge">
<title>A&#45;&gt;B</title>
<path fill="none" stroke="black" d="M138.38,-136.86C166.73,-145.01 218.28,-159.83 251.16,-169.28"/>
<polygon fill="black" stroke="black" points="250.55,-172.74 261.12,-172.14 252.48,-166.02 250.55,-172.74"/>
<text text-anchor="middle" x="189.5" y="-163" font-family="Times,serif" font-size="10.00">f</text>
</g>
<!-- A&#45;&gt;C -->
<g id="edge4" class="edge">
<title>A&#45;&gt;C</title>
<path fill="none" stroke="black" d="M139.21,-130.75C196.41,-130.06 354.09,-128.18 421.63,-127.37"/>
<polygon fill="black" stroke="black" points="421.71,-130.87 431.67,-127.25 421.63,-123.87 421.71,-130.87"/>
<text text-anchor="middle" x="282.5" y="-132" font-family="Times,serif" font-size="10.00">(a&#45;z|A&#45;Z|_|0&#45;9) &#45; f</text>
</g>
<!-- B&#45;&gt;C -->
<g id="edge5" class="edge">
<title>B&#45;&gt;C</title>
<path fill="none" stroke="black" d="M303.97,-172.66C329.78,-165.82 375.43,-153.37 414,-141 417.15,-139.99 420.43,-138.89 423.69,-137.77"/>
<polygon fill="black" stroke="black" points="424.99,-141.02 433.25,-134.39 422.65,-134.42 424.99,-141.02"/>
<text text-anchor="middle" x="378.5" y="-164" font-family="Times,serif" font-size="10.00">(a&#45;z|A&#45;Z|_|0&#45;9)</text>
</g>
<!-- E -->
<g id="node6" class="node">
<title>E</title>
<ellipse fill="none" stroke="black" cx="282.5" cy="-22" rx="18" ry="18"/>
<ellipse fill="none" stroke="black" cx="282.5" cy="-22" rx="22" ry="22"/>
<text text-anchor="middle" x="282.5" y="-18.3" font-family="Times,serif" font-size="14.00">E</text>
</g>
<!-- D&#45;&gt;E -->
<g id="edge8" class="edge">
<title>D&#45;&gt;E</title>
<path fill="none" stroke="black" d="M135.19,-27.37C162.41,-26.37 215.87,-24.41 250.08,-23.15"/>
<polygon fill="black" stroke="black" points="250.58,-26.64 260.45,-22.77 250.33,-19.64 250.58,-26.64"/>
<text text-anchor="middle" x="189.5" y="-30" font-family="Times,serif" font-size="10.00">(0&#45;9)</text>
</g>
<!-- E&#45;&gt;D -->
<g id="edge9" class="edge">
<title>E&#45;&gt;D</title>
<path fill="none" stroke="black" d="M261,-16.17C236.13,-9.97 193.06,-2.08 157,-10 152.07,-11.08 147.02,-12.85 142.26,-14.87"/>
<polygon fill="black" stroke="black" points="140.58,-11.79 133.02,-19.21 143.56,-18.12 140.58,-11.79"/>
<text text-anchor="middle" x="189.5" y="-13" font-family="Times,serif" font-size="10.00">ε</text>
</g>
</g>
</svg>
