<?xml version="1.0" encoding="UTF-8" standalone="no"?>
<!DOCTYPE svg PUBLIC "-//W3C//DTD SVG 1.1//EN"
 "http://www.w3.org/Graphics/SVG/1.1/DTD/svg11.dtd">
<!-- Generated by graphviz version 2.43.0 (0)
 -->
<!-- Title: ast_assignment Pages: 1 -->
<svg width="327pt" height="260pt"
 viewBox="0.00 0.00 327.00 260.00" xmlns="http://www.w3.org/2000/svg" xmlns:xlink="http://www.w3.org/1999/xlink">
<g id="graph0" class="graph" transform="scale(1 1) rotate(0) translate(4 256)">
<title>ast_assignment</title>
<polygon fill="white" stroke="transparent" points="-4,4 -4,-256 323,-256 323,4 -4,4"/>
<!-- if_stmt -->
<g id="node1" class="node">
<title>if_stmt</title>
<text text-anchor="start" x="129.5" y="-230.3" font-family="Times,serif" font-size="14.00">⟨if⟩</text>
</g>
<!-- if_cond -->
<g id="node2" class="node">
<title>if_cond</title>
<text text-anchor="start" x="65" y="-158.3" font-family="Times,serif" font-size="14.00">⟨equals⟩</text>
</g>
<!-- if_stmt&#45;&#45;if_cond -->
<g id="edge1" class="edge">
<title>if_stmt&#45;&#45;if_cond</title>
<path fill="none" stroke="black" d="M128.63,-215.7C121.5,-204.85 112.35,-190.92 105.24,-180.1"/>
</g>
<!-- asgn_stmt -->
<g id="node5" class="node">
<title>asgn_stmt</title>
<text text-anchor="start" x="157.5" y="-158.3" font-family="Times,serif" font-size="14.00">⟨assign⟩</text>
</g>
<!-- if_stmt&#45;&#45;asgn_stmt -->
<g id="edge4" class="edge">
<title>if_stmt&#45;&#45;asgn_stmt</title>
<path fill="none" stroke="black" d="M151.37,-215.7C158.5,-204.85 167.65,-190.92 174.76,-180.1"/>
</g>
<!-- cond_lhs -->
<g id="node3" class="node">
<title>cond_lhs</title>
<text text-anchor="middle" x="27" y="-86.3" font-family="Times,serif" font-size="14.00">7</text>
</g>
<!-- if_cond&#45;&#45;cond_lhs -->
<g id="edge2" class="edge">
<title>if_cond&#45;&#45;cond_lhs</title>
<path fill="none" stroke="black" d="M77.44,-143.7C67.05,-132.85 53.72,-118.92 43.37,-108.1"/>
</g>
<!-- cond_rhs -->
<g id="node4" class="node">
<title>cond_rhs</title>
<text text-anchor="middle" x="99" y="-86.3" font-family="Times,serif" font-size="14.00">7</text>
</g>
<!-- if_cond&#45;&#45;cond_rhs -->
<g id="edge3" class="edge">
<title>if_cond&#45;&#45;cond_rhs</title>
<path fill="none" stroke="black" d="M95.24,-143.7C96.01,-132.85 97.01,-118.92 97.78,-108.1"/>
</g>
<!-- asgn_lvalue -->
<g id="node6" class="node">
<title>asgn_lvalue</title>
<text text-anchor="middle" x="181" y="-86.3" font-family="Times,serif" font-size="14.00">var1</text>
</g>
<!-- asgn_stmt&#45;&#45;asgn_lvalue -->
<g id="edge5" class="edge">
<title>asgn_stmt&#45;&#45;asgn_lvalue</title>
<path fill="none" stroke="black" d="M184.76,-143.7C183.99,-132.85 182.99,-118.92 182.22,-108.1"/>
</g>
<!-- add_expr -->
<g id="node7" class="node">
<title>add_expr</title>
<text text-anchor="start" x="246.5" y="-86.3" font-family="Times,serif" font-size="14.00">+</text>
</g>
<!-- asgn_stmt&#45;&#45;add_expr -->
<g id="edge6" class="edge">
<title>asgn_stmt&#45;&#45;add_expr</title>
<path fill="none" stroke="black" d="M202.56,-143.7C212.95,-132.85 226.28,-118.92 236.63,-108.1"/>
</g>
<!-- add_num1 -->
<g id="node8" class="node">
<title>add_num1</title>
<text text-anchor="middle" x="216" y="-14.3" font-family="Times,serif" font-size="14.00">6</text>
</g>
<!-- add_expr&#45;&#45;add_num1 -->
<g id="edge7" class="edge">
<title>add_expr&#45;&#45;add_num1</title>
<path fill="none" stroke="black" d="M243.85,-71.7C238.12,-60.85 230.76,-46.92 225.04,-36.1"/>
</g>
<!-- add_num2 -->
<g id="node9" class="node">
<title>add_num2</title>
<text text-anchor="middle" x="290" y="-14.3" font-family="Times,serif" font-size="14.00">func()</text>
</g>
<!-- add_expr&#45;&#45;add_num2 -->
<g id="edge8" class="edge">
<title>add_expr&#45;&#45;add_num2</title>
<path fill="none" stroke="black" d="M262.15,-71.7C267.88,-60.85 275.24,-46.92 280.96,-36.1"/>
</g>
</g>
</svg>
