<?xml version="1.0" encoding="UTF-8" standalone="no"?>
<!DOCTYPE svg PUBLIC "-//W3C//DTD SVG 1.1//EN"
 "http://www.w3.org/Graphics/SVG/1.1/DTD/svg11.dtd">
<!-- Generated by graphviz version 2.43.0 (0)
 -->
<!-- Title: ast_expression_tree Pages: 1 -->
<svg width="280pt" height="197pt"
 viewBox="0.00 0.00 280.00 197.00" xmlns="http://www.w3.org/2000/svg" xmlns:xlink="http://www.w3.org/1999/xlink">
<g id="graph0" class="graph" transform="scale(1 1) rotate(0) translate(4 193)">
<title>ast_expression_tree</title>
<polygon fill="white" stroke="transparent" points="-4,4 -4,-193 276,-193 276,4 -4,4"/>
<!-- if_S -->
<g id="node1" class="node">
<title>if_S</title>
<ellipse fill="none" stroke="black" cx="18" cy="-22" rx="18" ry="18"/>
<text text-anchor="middle" x="18" y="-18.3" font-family="Times,serif" font-size="14.00">S</text>
</g>
<!-- if_A -->
<g id="node2" class="node">
<title>if_A</title>
<ellipse fill="none" stroke="black" cx="146" cy="-22" rx="18" ry="18"/>
<text text-anchor="middle" x="146" y="-18.3" font-family="Times,serif" font-size="14.00">A</text>
</g>
<!-- if_S&#45;&gt;if_A -->
<g id="edge1" class="edge">
<title>if_S&#45;&gt;if_A</title>
<path fill="none" stroke="black" d="M36.26,-22C57.27,-22 93.03,-22 117.77,-22"/>
<polygon fill="black" stroke="black" points="117.95,-25.5 127.95,-22 117.95,-18.5 117.95,-25.5"/>
<text text-anchor="middle" x="80" y="-25" font-family="Times,serif" font-size="10.00">i</text>
</g>
<!-- if_B -->
<g id="node3" class="node">
<title>if_B</title>
<ellipse fill="none" stroke="black" cx="250" cy="-22" rx="18" ry="18"/>
<ellipse fill="none" stroke="black" cx="250" cy="-22" rx="22" ry="22"/>
<text text-anchor="middle" x="250" y="-18.3" font-family="Times,serif" font-size="14.00">B</text>
</g>
<!-- if_A&#45;&gt;if_B -->
<g id="edge2" class="edge">
<title>if_A&#45;&gt;if_B</title>
<path fill="none" stroke="black" d="M164.3,-22C178.8,-22 199.87,-22 217.37,-22"/>
<polygon fill="black" stroke="black" points="217.71,-25.5 227.71,-22 217.71,-18.5 217.71,-25.5"/>
<text text-anchor="middle" x="198" y="-25" font-family="Times,serif" font-size="10.00">f</text>
</g>
<!-- ident_S -->
<g id="node4" class="node">
<title>ident_S</title>
<ellipse fill="none" stroke="black" cx="18" cy="-80" rx="18" ry="18"/>
<text text-anchor="middle" x="18" y="-76.3" font-family="Times,serif" font-size="14.00">S</text>
</g>
<!-- ident_A -->
<g id="node5" class="node">
<title>ident_A</title>
<ellipse fill="none" stroke="black" cx="146" cy="-80" rx="18" ry="18"/>
<ellipse fill="none" stroke="black" cx="146" cy="-80" rx="22" ry="22"/>
<text text-anchor="middle" x="146" y="-76.3" font-family="Times,serif" font-size="14.00">A</text>
</g>
<!-- ident_S&#45;&gt;ident_A -->
<g id="edge3" class="edge">
<title>ident_S&#45;&gt;ident_A</title>
<path fill="none" stroke="black" d="M36.26,-80C56.1,-80 89.08,-80 113.53,-80"/>
<polygon fill="black" stroke="black" points="113.75,-83.5 123.75,-80 113.75,-76.5 113.75,-83.5"/>
<text text-anchor="middle" x="80" y="-83" font-family="Times,serif" font-size="10.00">(a&#45;z|A&#45;Z|_)</text>
</g>
<!-- ident_A&#45;&gt;ident_A -->
<g id="edge4" class="edge">
<title>ident_A&#45;&gt;ident_A</title>
<path fill="none" stroke="black" d="M136.59,-100.17C135.15,-110.6 138.28,-120 146,-120 151.07,-120 154.16,-115.95 155.28,-110.22"/>
<polygon fill="black" stroke="black" points="158.78,-110.21 155.41,-100.17 151.78,-110.12 158.78,-110.21"/>
<text text-anchor="middle" x="146" y="-123" font-family="Times,serif" font-size="10.00">(a&#45;z|A&#45;Z|_|0&#45;9)</text>
</g>
<!-- num_S -->
<g id="node6" class="node">
<title>num_S</title>
<ellipse fill="none" stroke="black" cx="18" cy="-168" rx="18" ry="18"/>
<text text-anchor="middle" x="18" y="-164.3" font-family="Times,serif" font-size="14.00">S</text>
</g>
<!-- num_A -->
<g id="node7" class="node">
<title>num_A</title>
<ellipse fill="none" stroke="black" cx="146" cy="-167" rx="18" ry="18"/>
<text text-anchor="middle" x="146" y="-163.3" font-family="Times,serif" font-size="14.00">A</text>
</g>
<!-- num_S&#45;&gt;num_A -->
<g id="edge5" class="edge">
<title>num_S&#45;&gt;num_A</title>
<path fill="none" stroke="black" d="M36.26,-167.86C57.27,-167.7 93.03,-167.41 117.77,-167.22"/>
<polygon fill="black" stroke="black" points="117.98,-170.71 127.95,-167.14 117.93,-163.71 117.98,-170.71"/>
<text text-anchor="middle" x="80" y="-170" font-family="Times,serif" font-size="10.00">(+|&#45;)</text>
</g>
<!-- num_S&#45;&gt;num_A -->
<g id="edge6" class="edge">
<title>num_S&#45;&gt;num_A</title>
<path fill="none" stroke="black" d="M34.18,-159.34C40.16,-156.4 47.21,-153.48 54,-152 76.58,-147.08 83.28,-147.78 106,-152 110.62,-152.86 115.4,-154.24 119.96,-155.83"/>
<polygon fill="black" stroke="black" points="118.86,-159.16 129.45,-159.51 121.39,-152.63 118.86,-159.16"/>
<text text-anchor="middle" x="80" y="-155" font-family="Times,serif" font-size="10.00">ε</text>
</g>
<!-- num_B -->
<g id="node8" class="node">
<title>num_B</title>
<ellipse fill="none" stroke="black" cx="250" cy="-167" rx="18" ry="18"/>
<ellipse fill="none" stroke="black" cx="250" cy="-167" rx="22" ry="22"/>
<text text-anchor="middle" x="250" y="-163.3" font-family="Times,serif" font-size="14.00">B</text>
</g>
<!-- num_A&#45;&gt;num_B -->
<g id="edge7" class="edge">
<title>num_A&#45;&gt;num_B</title>
<path fill="none" stroke="black" d="M164.3,-167C178.8,-167 199.87,-167 217.37,-167"/>
<polygon fill="black" stroke="black" points="217.71,-170.5 227.71,-167 217.71,-163.5 217.71,-170.5"/>
<text text-anchor="middle" x="198" y="-170" font-family="Times,serif" font-size="10.00">(0&#45;9)</text>
</g>
<!-- num_B&#45;&gt;num_A -->
<g id="edge8" class="edge">
<title>num_B&#45;&gt;num_A</title>
<path fill="none" stroke="black" d="M229.57,-157.92C223.44,-155.5 216.56,-153.22 210,-152 199.51,-150.05 196.49,-150.05 186,-152 181.38,-152.86 176.6,-154.24 172.04,-155.83"/>
<polygon fill="black" stroke="black" points="170.61,-152.63 162.55,-159.51 173.14,-159.16 170.61,-152.63"/>
<text text-anchor="middle" x="198" y="-155" font-family="Times,serif" font-size="10.00">ε</text>
</g>
</g>
</svg>
