<?xml version="1.0" encoding="UTF-8" standalone="no"?>
<!DOCTYPE svg PUBLIC "-//W3C//DTD SVG 1.1//EN"
 "http://www.w3.org/Graphics/SVG/1.1/DTD/svg11.dtd">
<!-- Generated by graphviz version 2.43.0 (0)
 -->
<!-- Title: gramer Pages: 1 -->
<svg width="672pt" height="131pt"
 viewBox="0.00 0.00 671.50 131.00" xmlns="http://www.w3.org/2000/svg" xmlns:xlink="http://www.w3.org/1999/xlink">
<g id="graph0" class="graph" transform="scale(1 1) rotate(0) translate(4 127)">
<title>gramer</title>
<polygon fill="white" stroke="transparent" points="-4,4 -4,-127 667.5,-127 667.5,4 -4,4"/>
<!-- s1 -->
<g id="node1" class="node">
<title>s1</title>
<text text-anchor="middle" x="35.5" y="-101.3" font-family="Times,serif" font-size="14.00">Formal</text>
</g>
<!-- s2 -->
<g id="node4" class="node">
<title>s2</title>
<text text-anchor="middle" x="35.5" y="-14.3" font-family="Times,serif" font-size="14.00">Yabancı</text>
</g>
<!-- s1&#45;&gt;s2 -->
<g id="edge2" class="edge">
<title>s1&#45;&gt;s2</title>
<path fill="none" stroke="black" d="M35.5,-86.8C35.5,-75.16 35.5,-59.55 35.5,-46.24"/>
<polygon fill="black" stroke="black" points="39,-46.18 35.5,-36.18 32,-46.18 39,-46.18"/>
<text text-anchor="middle" x="51.5" y="-57.8" font-family="Times,serif" font-size="14.00">sıfat</text>
</g>
<!-- i1 -->
<g id="node2" class="node">
<title>i1</title>
<text text-anchor="middle" x="116.5" y="-101.3" font-family="Times,serif" font-size="14.00">dilleri</text>
</g>
<!-- i2 -->
<g id="node5" class="node">
<title>i2</title>
<text text-anchor="middle" x="116.5" y="-14.3" font-family="Times,serif" font-size="14.00">dil</text>
</g>
<!-- i1&#45;&gt;i2 -->
<g id="edge3" class="edge">
<title>i1&#45;&gt;i2</title>
<path fill="none" stroke="black" d="M116.5,-86.8C116.5,-75.16 116.5,-59.55 116.5,-46.24"/>
<polygon fill="black" stroke="black" points="120,-46.18 116.5,-36.18 113,-46.18 120,-46.18"/>
<text text-anchor="middle" x="132" y="-57.8" font-family="Times,serif" font-size="14.00">isim</text>
</g>
<!-- y1 -->
<g id="node3" class="node">
<title>y1</title>
<text text-anchor="middle" x="220.5" y="-101.3" font-family="Times,serif" font-size="14.00">öğreniyorum.</text>
</g>
<!-- y2 -->
<g id="node6" class="node">
<title>y2</title>
<text text-anchor="middle" x="220.5" y="-14.3" font-family="Times,serif" font-size="14.00">biliyorum.</text>
</g>
<!-- y1&#45;&gt;y2 -->
<g id="edge4" class="edge">
<title>y1&#45;&gt;y2</title>
<path fill="none" stroke="black" d="M220.5,-86.8C220.5,-75.16 220.5,-59.55 220.5,-46.24"/>
<polygon fill="black" stroke="black" points="224,-46.18 220.5,-36.18 217,-46.18 224,-46.18"/>
<text text-anchor="middle" x="230" y="-57.8" font-family="Times,serif" font-size="14.00">fiil</text>
</g>
<!-- r1 -->
<!-- r2 -->
<!-- r1&#45;&gt;r2 -->
<g id="edge1" class="edge">
<title>r1&#45;&gt;r2</title>
<path fill="none" stroke="transparent" d="M322.5,-86.8C322.5,-75.16 322.5,-59.55 322.5,-46.24"/>
<polygon fill="transparent" stroke="transparent" points="326,-46.18 322.5,-36.18 319,-46.18 326,-46.18"/>
<text text-anchor="middle" x="493" y="-57.8" font-family="Times,serif" font-size="14.00">Sözcükleri aynı türden kelimelerle değiştirelim.</text>
</g>
</g>
</svg>
