<?xml version="1.0" encoding="UTF-8" standalone="no"?>
<!DOCTYPE svg PUBLIC "-//W3C//DTD SVG 1.1//EN"
 "http://www.w3.org/Graphics/SVG/1.1/DTD/svg11.dtd">
<!-- Generated by graphviz version 2.43.0 (0)
 -->
<!-- Title: top_down_parsing Pages: 1 -->
<svg width="286pt" height="376pt"
 viewBox="0.00 0.00 286.00 376.00" xmlns="http://www.w3.org/2000/svg" xmlns:xlink="http://www.w3.org/1999/xlink">
<g id="graph0" class="graph" transform="scale(1 1) rotate(0) translate(4 372)">
<title>top_down_parsing</title>
<polygon fill="white" stroke="transparent" points="-4,4 -4,-372 282,-372 282,4 -4,4"/>
<!-- S -->
<g id="node1" class="node">
<title>S</title>
<text text-anchor="middle" x="125" y="-346.3" font-family="Times,serif" font-size="14.00">⟨S⟩</text>
</g>
<!-- id -->
<g id="node2" class="node">
<title>id</title>
<text text-anchor="middle" x="27" y="-263.3" font-family="Times,serif" font-size="14.00">x</text>
</g>
<!-- S&#45;&#45;id -->
<g id="edge1" class="edge">
<title>S&#45;&#45;id</title>
<path fill="none" stroke="black" d="M104.22,-331.82C87.59,-318.08 64.38,-298.89 47.75,-285.15"/>
<text text-anchor="middle" x="85.5" y="-306" font-family="Times,serif" font-size="10.00">1</text>
</g>
<!-- eq -->
<g id="node3" class="node">
<title>eq</title>
<text text-anchor="middle" x="99" y="-263.3" font-family="Times,serif" font-size="14.00">=</text>
</g>
<!-- S&#45;&#45;eq -->
<g id="edge2" class="edge">
<title>S&#45;&#45;eq</title>
<path fill="none" stroke="black" d="M119.49,-331.82C115.07,-318.08 108.92,-298.89 104.51,-285.15"/>
<text text-anchor="middle" x="117.5" y="-306" font-family="Times,serif" font-size="10.00">2</text>
</g>
<!-- expr -->
<g id="node4" class="node">
<title>expr</title>
<text text-anchor="middle" x="175" y="-263.3" font-family="Times,serif" font-size="14.00">⟨Expr⟩</text>
</g>
<!-- S&#45;&#45;expr -->
<g id="edge3" class="edge">
<title>S&#45;&#45;expr</title>
<path fill="none" stroke="black" d="M135.6,-331.82C144.09,-318.08 155.93,-298.89 164.41,-285.15"/>
<text text-anchor="middle" x="156.5" y="-306" font-family="Times,serif" font-size="10.00">3</text>
</g>
<!-- semi -->
<g id="node9" class="node">
<title>semi</title>
<text text-anchor="middle" x="251" y="-263.3" font-family="Times,serif" font-size="14.00">;</text>
</g>
<!-- S&#45;&#45;semi -->
<g id="edge8" class="edge">
<title>S&#45;&#45;semi</title>
<path fill="none" stroke="black" d="M151.72,-331.82C173.1,-318.08 202.94,-298.89 224.32,-285.15"/>
<text text-anchor="middle" x="199.5" y="-306" font-family="Times,serif" font-size="10.00">5</text>
</g>
<!-- factor -->
<g id="node5" class="node">
<title>factor</title>
<text text-anchor="middle" x="175" y="-180.3" font-family="Times,serif" font-size="14.00">⟨Factor⟩</text>
</g>
<!-- expr&#45;&#45;factor -->
<g id="edge4" class="edge">
<title>expr&#45;&#45;factor</title>
<path fill="none" stroke="black" d="M175,-248.82C175,-235.08 175,-215.89 175,-202.15"/>
<text text-anchor="middle" x="178.5" y="-223" font-family="Times,serif" font-size="10.00">3</text>
</g>
<!-- atom -->
<g id="node6" class="node">
<title>atom</title>
<text text-anchor="middle" x="175" y="-97.3" font-family="Times,serif" font-size="14.00">⟨Atom⟩</text>
</g>
<!-- factor&#45;&#45;atom -->
<g id="edge5" class="edge">
<title>factor&#45;&#45;atom</title>
<path fill="none" stroke="black" d="M175,-165.82C175,-152.08 175,-132.89 175,-119.15"/>
<text text-anchor="middle" x="178.5" y="-140" font-family="Times,serif" font-size="10.00">3</text>
</g>
<!-- minus -->
<g id="node7" class="node">
<title>minus</title>
<text text-anchor="middle" x="139" y="-14.3" font-family="Times,serif" font-size="14.00">&#45;</text>
</g>
<!-- atom&#45;&#45;minus -->
<g id="edge6" class="edge">
<title>atom&#45;&#45;minus</title>
<path fill="none" stroke="black" d="M167.37,-82.82C161.26,-69.08 152.73,-49.89 146.62,-36.15"/>
<text text-anchor="middle" x="163.5" y="-57" font-family="Times,serif" font-size="10.00">3</text>
</g>
<!-- num -->
<g id="node8" class="node">
<title>num</title>
<text text-anchor="middle" x="211" y="-14.3" font-family="Times,serif" font-size="14.00">5</text>
</g>
<!-- atom&#45;&#45;num -->
<g id="edge7" class="edge">
<title>atom&#45;&#45;num</title>
<path fill="none" stroke="black" d="M182.63,-82.82C188.74,-69.08 197.27,-49.89 203.38,-36.15"/>
<text text-anchor="middle" x="199.5" y="-57" font-family="Times,serif" font-size="10.00">4</text>
</g>
</g>
</svg>
