<?xml version="1.0" encoding="UTF-8" standalone="no"?>
<!DOCTYPE svg PUBLIC "-//W3C//DTD SVG 1.1//EN"
 "http://www.w3.org/Graphics/SVG/1.1/DTD/svg11.dtd">
<!-- Generated by graphviz version 2.43.0 (0)
 -->
<!-- Title: navigation Pages: 1 -->
<svg width="364pt" height="46pt"
 viewBox="0.00 0.00 364.00 46.00" xmlns="http://www.w3.org/2000/svg" xmlns:xlink="http://www.w3.org/1999/xlink">

<svg id="main" version="1.1" xmlns="http://www.w3.org/2000/svg" xmlns:xlink="http://www.w3.org/1999/xlink" xml:space="preserve" onload="init(evt)">
<style type="text/css"><![CDATA[
.node, .edge {opacity: 0.7;}
.node.selected, .edge.selected {opacity: 1;}
.edge:hover path { stroke: red; }
.edge:hover polygon { stroke: red; fill: red; }
]]></style>
<script type="application/ecmascript" xlink:href="svg.min.js"/>
<svg id="graph" class="graph">
<g id="graph0" class="graph" transform="scale(1 1) rotate(0) translate(4 42)">
<title>navigation</title>
<polygon fill="white" stroke="transparent" points="-4,4 -4,-42 360,-42 360,4 -4,4"/>
<!-- A -->
<g id="node1" class="node">
<title>A</title>
<polygon fill="none" stroke="black" points="122,-38 0,-38 0,0 122,0 122,-38"/>
<text text-anchor="middle" x="61" y="-22.8" font-family="Times,serif" font-size="14.00">lexing</text>
<text text-anchor="middle" x="61" y="-7.8" font-family="Times,serif" font-size="14.00">BURADASINIZ</text>
</g>
<!-- B -->
<g id="node2" class="node">
<title>B</title>
<polygon fill="none" stroke="black" points="229,-37 158,-37 158,-1 229,-1 229,-37"/>
<text text-anchor="middle" x="193.5" y="-15.3" font-family="Times,serif" font-size="14.00">parsing</text>
</g>
<!-- A&#45;&gt;B -->
<g id="edge1" class="edge">
<title>A&#45;&gt;B</title>
<path fill="none" stroke="black" d="M122.28,-19C130.83,-19 139.49,-19 147.67,-19"/>
<polygon fill="black" stroke="black" points="147.74,-22.5 157.74,-19 147.74,-15.5 147.74,-22.5"/>
</g>
<!-- C -->
<g id="node3" class="node">
<title>C</title>
<polygon fill="none" stroke="black" points="356,-37 265,-37 265,-1 356,-1 356,-37"/>
<text text-anchor="middle" x="310.5" y="-15.3" font-family="Times,serif" font-size="14.00">evaluation</text>
</g>
<!-- B&#45;&gt;C -->
<g id="edge2" class="edge">
<title>B&#45;&gt;C</title>
<path fill="none" stroke="black" d="M229,-19C237.09,-19 245.9,-19 254.63,-19"/>
<polygon fill="black" stroke="black" points="254.79,-22.5 264.79,-19 254.79,-15.5 254.79,-22.5"/>
</g>
</g>
</svg>
</svg>

<style type='text/css'>
<![CDATA[
[data-mouse-over-selected='false'] { opacity: 0.7; }
[data-mouse-over-selected='true']  { opacity: 1.0; }
]]>
</style>
<script type="application/ecmascript"><![CDATA[
document.addEventListener('DOMContentLoaded', (event) => {
  highlightEdges();
  highlightAdjacentNodes();
});
]]></script>
</svg>
