<?xml version="1.0" encoding="UTF-8" standalone="no"?>
<!DOCTYPE svg PUBLIC "-//W3C//DTD SVG 1.1//EN"
 "http://www.w3.org/Graphics/SVG/1.1/DTD/svg11.dtd">
<!-- Generated by graphviz version 2.43.0 (0)
 -->
<!-- Title: include/recursive&#45;parser.h Pages: 1 -->
<svg width="248pt" height="192pt"
 viewBox="0.00 0.00 248.34 192.00" xmlns="http://www.w3.org/2000/svg" xmlns:xlink="http://www.w3.org/1999/xlink">

<svg id="main" version="1.1" xmlns="http://www.w3.org/2000/svg" xmlns:xlink="http://www.w3.org/1999/xlink" xml:space="preserve" onload="init(evt)">
<style type="text/css"><![CDATA[
.node, .edge {opacity: 0.7;}
.node.selected, .edge.selected {opacity: 1;}
.edge:hover path { stroke: red; }
.edge:hover polygon { stroke: red; fill: red; }
]]></style>
<script type="application/ecmascript" xlink:href="svg.min.js"/>
<svg id="graph" class="graph">
<g id="graph0" class="graph" transform="scale(1 1) rotate(0) translate(4 188)">
<title>include/recursive&#45;parser.h</title>
<!-- Node1 -->
<g id="Node000001" class="node">
<title>Node1</title>
<g id="a_Node000001"><a xlink:title="Top Down Parsing">
<polygon fill="#999999" stroke="#666666" points="236,-184 93,-184 93,-165 236,-165 236,-184"/>
<text text-anchor="middle" x="164.5" y="-172" font-family="Helvetica,sans-Serif" font-size="10.00">include/recursive&#45;parser.h</text>
</a>
</g>
</g>
<!-- Node2 -->
<g id="Node000002" class="node">
<title>Node2</title>
<g id="a_Node000002"><a xlink:href="lexer_8h.html" target="_top" xlink:title="Lexer">
<polygon fill="white" stroke="#666666" points="224,-74 175,-74 175,-55 224,-55 224,-74"/>
<text text-anchor="middle" x="199.5" y="-62" font-family="Helvetica,sans-Serif" font-size="10.00">lexer.h</text>
</a>
</g>
</g>
<!-- Node1&#45;&gt;Node2 -->
<g id="edge1_Node000001_Node000002" class="edge">
<title>Node1&#45;&gt;Node2</title>
<g id="a_edge1_Node000001_Node000002"><a xlink:title=" ">
<path fill="none" stroke="#63b8ff" d="M167.36,-164.66C173.06,-147.09 185.91,-107.45 193.52,-83.95"/>
<polygon fill="#63b8ff" stroke="#63b8ff" points="196.94,-84.75 196.69,-74.16 190.28,-82.59 196.94,-84.75"/>
</a>
</g>
</g>
<!-- Node3 -->
<g id="Node000003" class="node">
<title>Node3</title>
<g id="a_Node000003"><a xlink:title=" ">
<polygon fill="#e0e0e0" stroke="#999999" points="165.5,-19 109.5,-19 109.5,0 165.5,0 165.5,-19"/>
<text text-anchor="middle" x="137.5" y="-7" font-family="Helvetica,sans-Serif" font-size="10.00">stddef.h</text>
</a>
</g>
</g>
<!-- Node1&#45;&gt;Node3 -->
<g id="edge10_Node000001_Node000003" class="edge">
<title>Node1&#45;&gt;Node3</title>
<g id="a_edge10_Node000001_Node000003"><a xlink:title=" ">
<path fill="none" stroke="#63b8ff" d="M176.64,-164.73C202.6,-144.88 259.13,-95.13 233.5,-55 220.75,-35.04 196.5,-23.9 175.57,-17.76"/>
<polygon fill="#63b8ff" stroke="#63b8ff" points="176.18,-14.3 165.62,-15.13 174.39,-21.07 176.18,-14.3"/>
</a>
</g>
</g>
<!-- Node4 -->
<g id="Node000004" class="node">
<title>Node4</title>
<g id="a_Node000004"><a xlink:href="map_8h.html" target="_top" xlink:title="Basit hashmap.">
<polygon fill="white" stroke="#666666" points="47,-74 0,-74 0,-55 47,-55 47,-74"/>
<text text-anchor="middle" x="23.5" y="-62" font-family="Helvetica,sans-Serif" font-size="10.00">map.h</text>
</a>
</g>
</g>
<!-- Node1&#45;&gt;Node4 -->
<g id="edge3_Node000001_Node000004" class="edge">
<title>Node1&#45;&gt;Node4</title>
<g id="a_edge3_Node000001_Node000004"><a xlink:title=" ">
<path fill="none" stroke="#63b8ff" d="M146.3,-164.89C129.91,-156.74 105.56,-143.6 86.5,-129 67.92,-114.76 49.38,-95.28 37.28,-81.66"/>
<polygon fill="#63b8ff" stroke="#63b8ff" points="39.84,-79.27 30.63,-74.04 34.56,-83.88 39.84,-79.27"/>
</a>
</g>
</g>
<!-- Node5 -->
<g id="Node000005" class="node">
<title>Node5</title>
<g id="a_Node000005"><a xlink:href="tokenizer_8h.html" target="_top" xlink:title="Tokenizer">
<polygon fill="white" stroke="#666666" points="165.5,-129 95.5,-129 95.5,-110 165.5,-110 165.5,-129"/>
<text text-anchor="middle" x="130.5" y="-117" font-family="Helvetica,sans-Serif" font-size="10.00">tokenizer.h</text>
</a>
</g>
</g>
<!-- Node1&#45;&gt;Node5 -->
<g id="edge5_Node000001_Node000005" class="edge">
<title>Node1&#45;&gt;Node5</title>
<g id="a_edge5_Node000001_Node000005"><a xlink:title=" ">
<path fill="none" stroke="#63b8ff" d="M158.89,-164.75C154.18,-157.42 147.33,-146.73 141.53,-137.7"/>
<polygon fill="#63b8ff" stroke="#63b8ff" points="144.36,-135.62 136.01,-129.09 138.46,-139.4 144.36,-135.62"/>
</a>
</g>
</g>
<!-- Node2&#45;&gt;Node3 -->
<g id="edge2_Node000002_Node000003" class="edge">
<title>Node2&#45;&gt;Node3</title>
<g id="a_edge2_Node000002_Node000003"><a xlink:title=" ">
<path fill="none" stroke="#63b8ff" d="M189.54,-54.98C180.37,-47.15 166.56,-35.34 155.47,-25.86"/>
<polygon fill="#63b8ff" stroke="#63b8ff" points="157.52,-23.01 147.64,-19.17 152.97,-28.33 157.52,-23.01"/>
</a>
</g>
</g>
<!-- Node4&#45;&gt;Node3 -->
<g id="edge4_Node000004_Node000003" class="edge">
<title>Node4&#45;&gt;Node3</title>
<g id="a_edge4_Node000004_Node000003"><a xlink:title=" ">
<path fill="none" stroke="#63b8ff" d="M41.82,-54.98C60.16,-46.46 88.61,-33.23 109.73,-23.41"/>
<polygon fill="#63b8ff" stroke="#63b8ff" points="111.26,-26.56 118.85,-19.17 108.31,-20.21 111.26,-26.56"/>
</a>
</g>
</g>
<!-- Node5&#45;&gt;Node2 -->
<g id="edge6_Node000005_Node000002" class="edge">
<title>Node5&#45;&gt;Node2</title>
<g id="a_edge6_Node000005_Node000002"><a xlink:title=" ">
<path fill="none" stroke="#63b8ff" d="M141.59,-109.98C151.99,-102 167.76,-89.88 180.22,-80.31"/>
<polygon fill="#63b8ff" stroke="#63b8ff" points="182.41,-83.04 188.21,-74.17 178.15,-77.49 182.41,-83.04"/>
</a>
</g>
</g>
<!-- Node5&#45;&gt;Node3 -->
<g id="edge8_Node000005_Node000003" class="edge">
<title>Node5&#45;&gt;Node3</title>
<g id="a_edge8_Node000005_Node000003"><a xlink:title=" ">
<path fill="none" stroke="#63b8ff" d="M119.7,-109.83C106.29,-97.94 86.14,-75.68 94.5,-55 99.19,-43.41 108.5,-33.16 117.26,-25.43"/>
<polygon fill="#63b8ff" stroke="#63b8ff" points="119.5,-28.12 125.01,-19.07 115.06,-22.71 119.5,-28.12"/>
</a>
</g>
</g>
<!-- Node5&#45;&gt;Node4 -->
<g id="edge7_Node000005_Node000004" class="edge">
<title>Node5&#45;&gt;Node4</title>
<g id="a_edge7_Node000005_Node000004"><a xlink:title=" ">
<path fill="none" stroke="#63b8ff" d="M113.31,-109.98C96.25,-101.54 69.87,-88.47 50.1,-78.68"/>
<polygon fill="#63b8ff" stroke="#63b8ff" points="51.52,-75.47 41,-74.17 48.41,-81.75 51.52,-75.47"/>
</a>
</g>
</g>
<!-- Node6 -->
<g id="Node000006" class="node">
<title>Node6</title>
<g id="a_Node000006"><a xlink:title=" ">
<polygon fill="#e0e0e0" stroke="#999999" points="157,-74 104,-74 104,-55 157,-55 157,-74"/>
<text text-anchor="middle" x="130.5" y="-62" font-family="Helvetica,sans-Serif" font-size="10.00">stdint.h</text>
</a>
</g>
</g>
<!-- Node5&#45;&gt;Node6 -->
<g id="edge9_Node000005_Node000006" class="edge">
<title>Node5&#45;&gt;Node6</title>
<g id="a_edge9_Node000005_Node000006"><a xlink:title=" ">
<path fill="none" stroke="#63b8ff" d="M130.5,-109.75C130.5,-102.8 130.5,-92.85 130.5,-84.13"/>
<polygon fill="#63b8ff" stroke="#63b8ff" points="134,-84.09 130.5,-74.09 127,-84.09 134,-84.09"/>
</a>
</g>
</g>
</g>
</svg>
</svg>

<style type='text/css'>
<![CDATA[
[data-mouse-over-selected='false'] { opacity: 0.7; }
[data-mouse-over-selected='true']  { opacity: 1.0; }
]]>
</style>
<script type="application/ecmascript"><![CDATA[
document.addEventListener('DOMContentLoaded', (event) => {
  highlightEdges();
  highlightAdjacentNodes();
});
]]></script>
</svg>
