<?xml version="1.0" encoding="UTF-8" standalone="no"?>
<!DOCTYPE svg PUBLIC "-//W3C//DTD SVG 1.1//EN"
 "http://www.w3.org/Graphics/SVG/1.1/DTD/svg11.dtd">
<!-- Generated by graphviz version 2.43.0 (0)
 -->
<!-- Title: tokenizer Pages: 1 -->
<svg width="184pt" height="115pt"
 viewBox="0.00 0.00 184.00 115.00" xmlns="http://www.w3.org/2000/svg" xmlns:xlink="http://www.w3.org/1999/xlink">
<g id="graph0" class="graph" transform="scale(1 1) rotate(0) translate(4 111)">
<title>tokenizer</title>
<!-- Node1 -->
<g id="Node000001" class="node">
<title>Node1</title>
<g id="a_Node000001"><a xlink:title="tokenizer.">
<polygon fill="#999999" stroke="#666666" points="93,-19 31,-19 31,0 93,0 93,-19"/>
<text text-anchor="middle" x="62" y="-7" font-family="Helvetica,sans-Serif" font-size="10.00">tokenizer</text>
</a>
</g>
</g>
<!-- Node2 -->
<g id="Node000002" class="node">
<title>Node2</title>
<g id="a_Node000002"><a xlink:href="structmap.html" target="_top" xlink:title="map.">
<polygon fill="white" stroke="#666666" points="38,-107 0,-107 0,-88 38,-88 38,-107"/>
<text text-anchor="middle" x="19" y="-95" font-family="Helvetica,sans-Serif" font-size="10.00">map</text>
</a>
</g>
</g>
<!-- Node2&#45;&gt;Node1 -->
<g id="edge1_Node000001_Node000002" class="edge">
<title>Node2&#45;&gt;Node1</title>
<g id="a_edge1_Node000001_Node000002"><a xlink:title=" ">
<path fill="none" stroke="#9a32cd" stroke-dasharray="5,2" d="M14.92,-77.68C13.26,-65.34 13.1,-49.27 20,-37 24.4,-29.18 32.15,-23.35 39.81,-19.17"/>
<polygon fill="#9a32cd" stroke="#9a32cd" points="11.52,-78.52 16.71,-87.76 18.41,-77.3 11.52,-78.52"/>
</a>
</g>
<text text-anchor="middle" x="52" y="-62" font-family="Helvetica,sans-Serif" font-size="10.00" fill="grey"> ident_map</text>
<text text-anchor="middle" x="52" y="-51" font-family="Helvetica,sans-Serif" font-size="10.00" fill="grey">keywords</text>
<text text-anchor="middle" x="52" y="-40" font-family="Helvetica,sans-Serif" font-size="10.00" fill="grey">punctuations</text>
</g>
<!-- Node3 -->
<g id="Node000003" class="node">
<title>Node3</title>
<g id="a_Node000003"><a xlink:href="structlexeme.html" target="_top" xlink:title="Ham lexer çıktısı.">
<polygon fill="white" stroke="#666666" points="132.5,-107 79.5,-107 79.5,-88 132.5,-88 132.5,-107"/>
<text text-anchor="middle" x="106" y="-95" font-family="Helvetica,sans-Serif" font-size="10.00">lexeme</text>
</a>
</g>
</g>
<!-- Node3&#45;&gt;Node1 -->
<g id="edge2_Node000001_Node000003" class="edge">
<title>Node3&#45;&gt;Node1</title>
<g id="a_edge2_Node000001_Node000003"><a xlink:title=" ">
<path fill="none" stroke="#9a32cd" stroke-dasharray="5,2" d="M100.86,-77.75C97.12,-65.66 91.42,-49.85 84,-37 80.29,-30.58 75.02,-24.16 70.56,-19.25"/>
<polygon fill="#9a32cd" stroke="#9a32cd" points="97.58,-79 103.74,-87.62 104.3,-77.04 97.58,-79"/>
</a>
</g>
<text text-anchor="middle" x="136.5" y="-51" font-family="Helvetica,sans-Serif" font-size="10.00" fill="grey"> current_lexeme</text>
</g>
</g>
</svg>
