<?xml version="1.0" encoding="UTF-8" standalone="no"?>
<!DOCTYPE svg PUBLIC "-//W3C//DTD SVG 1.1//EN"
 "http://www.w3.org/Graphics/SVG/1.1/DTD/svg11.dtd">
<!-- Generated by graphviz version 2.43.0 (0)
 -->
<!-- Title: parser Pages: 1 -->
<svg width="273pt" height="181pt"
 viewBox="0.00 0.00 272.50 181.00" xmlns="http://www.w3.org/2000/svg" xmlns:xlink="http://www.w3.org/1999/xlink">
<g id="graph0" class="graph" transform="scale(1 1) rotate(0) translate(4 177)">
<title>parser</title>
<!-- Node1 -->
<g id="Node000001" class="node">
<title>Node1</title>
<g id="a_Node000001"><a xlink:title="Parser.">
<polygon fill="#999999" stroke="#666666" points="170.5,-19 123.5,-19 123.5,0 170.5,0 170.5,-19"/>
<text text-anchor="middle" x="147" y="-7" font-family="Helvetica,sans-Serif" font-size="10.00">parser</text>
</a>
</g>
</g>
<!-- Node2 -->
<g id="Node000002" class="node">
<title>Node2</title>
<g id="a_Node000002"><a xlink:href="structtokenizer.html" target="_top" xlink:title="tokenizer.">
<polygon fill="white" stroke="#666666" points="142,-85 80,-85 80,-66 142,-66 142,-85"/>
<text text-anchor="middle" x="111" y="-73" font-family="Helvetica,sans-Serif" font-size="10.00">tokenizer</text>
</a>
</g>
</g>
<!-- Node2&#45;&gt;Node1 -->
<g id="edge1_Node000001_Node000002" class="edge">
<title>Node2&#45;&gt;Node1</title>
<g id="a_edge1_Node000001_Node000002"><a xlink:title=" ">
<path fill="none" stroke="#9a32cd" stroke-dasharray="5,2" d="M108.34,-55.67C108.26,-49.43 109.1,-42.65 112,-37 115.9,-29.41 123.09,-23.39 129.94,-19.01"/>
<polygon fill="#9a32cd" stroke="#9a32cd" points="104.88,-56.27 109.21,-65.94 111.85,-55.68 104.88,-56.27"/>
</a>
</g>
<text text-anchor="middle" x="136.5" y="-40" font-family="Helvetica,sans-Serif" font-size="10.00" fill="grey"> tokenizer</text>
</g>
<!-- Node3 -->
<g id="Node000003" class="node">
<title>Node3</title>
<g id="a_Node000003"><a xlink:href="structmap.html" target="_top" xlink:title="map.">
<polygon fill="white" stroke="#666666" points="38,-173 0,-173 0,-154 38,-154 38,-173"/>
<text text-anchor="middle" x="19" y="-161" font-family="Helvetica,sans-Serif" font-size="10.00">map</text>
</a>
</g>
</g>
<!-- Node3&#45;&gt;Node1 -->
<g id="edge4_Node000001_Node000003" class="edge">
<title>Node3&#45;&gt;Node1</title>
<g id="a_edge4_Node000001_Node000003"><a xlink:title=" ">
<path fill="none" stroke="#9a32cd" stroke-dasharray="5,2" d="M14.17,-144.04C9.86,-123.21 6.38,-89.23 22,-66 44.92,-31.91 93.95,-18.55 123.33,-13.47"/>
<polygon fill="#9a32cd" stroke="#9a32cd" points="10.78,-144.91 16.47,-153.85 17.6,-143.32 10.78,-144.91"/>
</a>
</g>
<text text-anchor="middle" x="46.5" y="-73" font-family="Helvetica,sans-Serif" font-size="10.00" fill="grey"> variables</text>
</g>
<!-- Node3&#45;&gt;Node2 -->
<g id="edge2_Node000002_Node000003" class="edge">
<title>Node3&#45;&gt;Node2</title>
<g id="a_edge2_Node000002_Node000003"><a xlink:title=" ">
<path fill="none" stroke="#9a32cd" stroke-dasharray="5,2" d="M23.5,-143.88C27.49,-130.92 34.5,-114.06 46,-103 55.31,-94.05 68.05,-87.96 79.79,-83.91"/>
<polygon fill="#9a32cd" stroke="#9a32cd" points="20.1,-143.05 20.84,-153.62 26.85,-144.9 20.1,-143.05"/>
</a>
</g>
<text text-anchor="middle" x="78" y="-128" font-family="Helvetica,sans-Serif" font-size="10.00" fill="grey"> ident_map</text>
<text text-anchor="middle" x="78" y="-117" font-family="Helvetica,sans-Serif" font-size="10.00" fill="grey">keywords</text>
<text text-anchor="middle" x="78" y="-106" font-family="Helvetica,sans-Serif" font-size="10.00" fill="grey">punctuations</text>
</g>
<!-- Node4 -->
<g id="Node000004" class="node">
<title>Node4</title>
<g id="a_Node000004"><a xlink:href="structlexeme.html" target="_top" xlink:title="Ham lexer çıktısı.">
<polygon fill="white" stroke="#666666" points="148.5,-173 95.5,-173 95.5,-154 148.5,-154 148.5,-173"/>
<text text-anchor="middle" x="122" y="-161" font-family="Helvetica,sans-Serif" font-size="10.00">lexeme</text>
</a>
</g>
</g>
<!-- Node4&#45;&gt;Node2 -->
<g id="edge3_Node000002_Node000004" class="edge">
<title>Node4&#45;&gt;Node2</title>
<g id="a_edge3_Node000002_Node000004"><a xlink:title=" ">
<path fill="none" stroke="#9a32cd" stroke-dasharray="5,2" d="M119.62,-143.91C117.29,-125.67 113.83,-98.65 112.09,-85.03"/>
<polygon fill="#9a32cd" stroke="#9a32cd" points="116.16,-144.46 120.91,-153.94 123.11,-143.58 116.16,-144.46"/>
</a>
</g>
<text text-anchor="middle" x="157.5" y="-117" font-family="Helvetica,sans-Serif" font-size="10.00" fill="grey"> current_lexeme</text>
</g>
<!-- Node5 -->
<g id="Node000005" class="node">
<title>Node5</title>
<g id="a_Node000005"><a xlink:href="structtoken.html" target="_top" xlink:title="Token.">
<polygon fill="white" stroke="#666666" points="205,-85 161,-85 161,-66 205,-66 205,-85"/>
<text text-anchor="middle" x="183" y="-73" font-family="Helvetica,sans-Serif" font-size="10.00">token</text>
</a>
</g>
</g>
<!-- Node5&#45;&gt;Node1 -->
<g id="edge5_Node000001_Node000005" class="edge">
<title>Node5&#45;&gt;Node1</title>
<g id="a_edge5_Node000001_Node000005"><a xlink:title=" ">
<path fill="none" stroke="#9a32cd" stroke-dasharray="5,2" d="M173.18,-57.05C166.33,-44.86 157.47,-29.11 152.01,-19.41"/>
<polygon fill="#9a32cd" stroke="#9a32cd" points="170.19,-58.87 178.14,-65.87 176.29,-55.44 170.19,-58.87"/>
</a>
</g>
<text text-anchor="middle" x="182.5" y="-40" font-family="Helvetica,sans-Serif" font-size="10.00" fill="grey"> token</text>
</g>
<!-- Node6 -->
<g id="Node000006" class="node">
<title>Node6</title>
<g id="a_Node000006"><a xlink:href="unionseminfo.html" target="_top" xlink:title="[Tokenizer tanımı]">
<polygon fill="white" stroke="#666666" points="252,-173 196,-173 196,-154 252,-154 252,-173"/>
<text text-anchor="middle" x="224" y="-161" font-family="Helvetica,sans-Serif" font-size="10.00">seminfo</text>
</a>
</g>
</g>
<!-- Node6&#45;&gt;Node5 -->
<g id="edge6_Node000005_Node000006" class="edge">
<title>Node6&#45;&gt;Node5</title>
<g id="a_edge6_Node000005_Node000006"><a xlink:title=" ">
<path fill="none" stroke="#9a32cd" stroke-dasharray="5,2" d="M218.07,-144C213.93,-132.01 207.93,-116.22 201,-103 197.7,-96.69 193.2,-90.07 189.52,-85.02"/>
<polygon fill="#9a32cd" stroke="#9a32cd" points="214.84,-145.37 221.32,-153.76 221.48,-143.16 214.84,-145.37"/>
</a>
</g>
<text text-anchor="middle" x="235.5" y="-117" font-family="Helvetica,sans-Serif" font-size="10.00" fill="grey"> seminfo</text>
</g>
<!-- Node7 -->
<g id="Node000007" class="node">
<title>Node7</title>
<g id="a_Node000007"><a xlink:href="structlexer.html" target="_top" xlink:title="lexer.">
<polygon fill="white" stroke="#666666" points="264.5,-85 223.5,-85 223.5,-66 264.5,-66 264.5,-85"/>
<text text-anchor="middle" x="244" y="-73" font-family="Helvetica,sans-Serif" font-size="10.00">lexer</text>
</a>
</g>
</g>
<!-- Node7&#45;&gt;Node1 -->
<g id="edge7_Node000001_Node000007" class="edge">
<title>Node7&#45;&gt;Node1</title>
<g id="a_edge7_Node000001_Node000007"><a xlink:title=" ">
<path fill="none" stroke="#9a32cd" stroke-dasharray="5,2" d="M228.52,-58.78C220.94,-51.59 211.43,-43.3 202,-37 191.42,-29.94 178.68,-23.67 168.12,-19.01"/>
<polygon fill="#9a32cd" stroke="#9a32cd" points="226.3,-61.5 235.89,-65.99 231.19,-56.5 226.3,-61.5"/>
</a>
</g>
<text text-anchor="middle" x="229" y="-40" font-family="Helvetica,sans-Serif" font-size="10.00" fill="grey"> lexer</text>
</g>
</g>
</svg>
