<?xml version="1.0" encoding="UTF-8" standalone="no"?>
<!DOCTYPE svg PUBLIC "-//W3C//DTD SVG 1.1//EN"
 "http://www.w3.org/Graphics/SVG/1.1/DTD/svg11.dtd">
<!-- Generated by graphviz version 2.43.0 (0)
 -->
<!-- Title: include/tokenizer.h Pages: 1 -->
<svg width="232pt" height="137pt"
 viewBox="0.00 0.00 232.00 137.00" xmlns="http://www.w3.org/2000/svg" xmlns:xlink="http://www.w3.org/1999/xlink">
<g id="graph0" class="graph" transform="scale(1 1) rotate(0) translate(4 133)">
<title>include/tokenizer.h</title>
<!-- Node1 -->
<g id="Node000001" class="node">
<title>Node1</title>
<g id="a_Node000001"><a xlink:title="Tokenizer">
<polygon fill="#999999" stroke="#666666" points="157.5,-129 49.5,-129 49.5,-110 157.5,-110 157.5,-129"/>
<text text-anchor="middle" x="103.5" y="-117" font-family="Helvetica,sans-Serif" font-size="10.00">include/tokenizer.h</text>
</a>
</g>
</g>
<!-- Node2 -->
<g id="Node000002" class="node">
<title>Node2</title>
<g id="a_Node000002"><a xlink:href="lexer_8h.html" target="_top" xlink:title="Lexer">
<polygon fill="white" stroke="#666666" points="49,-74 0,-74 0,-55 49,-55 49,-74"/>
<text text-anchor="middle" x="24.5" y="-62" font-family="Helvetica,sans-Serif" font-size="10.00">lexer.h</text>
</a>
</g>
</g>
<!-- Node1&#45;&gt;Node2 -->
<g id="edge1_Node000001_Node000002" class="edge">
<title>Node1&#45;&gt;Node2</title>
<g id="a_edge1_Node000001_Node000002"><a xlink:title=" ">
<path fill="none" stroke="#63b8ff" d="M90.81,-109.98C78.67,-101.84 60.14,-89.41 45.75,-79.76"/>
<polygon fill="#63b8ff" stroke="#63b8ff" points="47.68,-76.84 37.42,-74.17 43.78,-82.65 47.68,-76.84"/>
</a>
</g>
</g>
<!-- Node3 -->
<g id="Node000003" class="node">
<title>Node3</title>
<g id="a_Node000003"><a xlink:title=" ">
<polygon fill="#e0e0e0" stroke="#999999" points="105.5,-19 49.5,-19 49.5,0 105.5,0 105.5,-19"/>
<text text-anchor="middle" x="77.5" y="-7" font-family="Helvetica,sans-Serif" font-size="10.00">stddef.h</text>
</a>
</g>
</g>
<!-- Node1&#45;&gt;Node3 -->
<g id="edge5_Node000001_Node000003" class="edge">
<title>Node1&#45;&gt;Node3</title>
<g id="a_edge5_Node000001_Node000003"><a xlink:title=" ">
<path fill="none" stroke="#63b8ff" d="M101.37,-109.66C97.14,-92.09 87.6,-52.45 81.94,-28.95"/>
<polygon fill="#63b8ff" stroke="#63b8ff" points="85.33,-28.06 79.58,-19.16 78.52,-29.7 85.33,-28.06"/>
</a>
</g>
</g>
<!-- Node4 -->
<g id="Node000004" class="node">
<title>Node4</title>
<g id="a_Node000004"><a xlink:href="map_8h.html" target="_top" xlink:title="Basit hashmap.">
<polygon fill="white" stroke="#666666" points="153,-74 106,-74 106,-55 153,-55 153,-74"/>
<text text-anchor="middle" x="129.5" y="-62" font-family="Helvetica,sans-Serif" font-size="10.00">map.h</text>
</a>
</g>
</g>
<!-- Node1&#45;&gt;Node4 -->
<g id="edge3_Node000001_Node000004" class="edge">
<title>Node1&#45;&gt;Node4</title>
<g id="a_edge3_Node000001_Node000004"><a xlink:title=" ">
<path fill="none" stroke="#63b8ff" d="M107.79,-109.75C111.31,-102.57 116.41,-92.18 120.78,-83.27"/>
<polygon fill="#63b8ff" stroke="#63b8ff" points="124.02,-84.61 125.29,-74.09 117.74,-81.53 124.02,-84.61"/>
</a>
</g>
</g>
<!-- Node5 -->
<g id="Node000005" class="node">
<title>Node5</title>
<g id="a_Node000005"><a xlink:title=" ">
<polygon fill="#e0e0e0" stroke="#999999" points="224,-74 171,-74 171,-55 224,-55 224,-74"/>
<text text-anchor="middle" x="197.5" y="-62" font-family="Helvetica,sans-Serif" font-size="10.00">stdint.h</text>
</a>
</g>
</g>
<!-- Node1&#45;&gt;Node5 -->
<g id="edge6_Node000001_Node000005" class="edge">
<title>Node1&#45;&gt;Node5</title>
<g id="a_edge6_Node000001_Node000005"><a xlink:title=" ">
<path fill="none" stroke="#63b8ff" d="M118.6,-109.98C133.32,-101.69 155.92,-88.94 173.17,-79.22"/>
<polygon fill="#63b8ff" stroke="#63b8ff" points="175.13,-82.13 182.12,-74.17 171.69,-76.03 175.13,-82.13"/>
</a>
</g>
</g>
<!-- Node2&#45;&gt;Node3 -->
<g id="edge2_Node000002_Node000003" class="edge">
<title>Node2&#45;&gt;Node3</title>
<g id="a_edge2_Node000002_Node000003"><a xlink:title=" ">
<path fill="none" stroke="#63b8ff" d="M33.25,-54.75C40.97,-47.03 52.4,-35.6 61.72,-26.28"/>
<polygon fill="#63b8ff" stroke="#63b8ff" points="64.31,-28.64 68.91,-19.09 59.36,-23.69 64.31,-28.64"/>
</a>
</g>
</g>
<!-- Node4&#45;&gt;Node3 -->
<g id="edge4_Node000004_Node000003" class="edge">
<title>Node4&#45;&gt;Node3</title>
<g id="a_edge4_Node000004_Node000003"><a xlink:title=" ">
<path fill="none" stroke="#63b8ff" d="M120.91,-54.75C113.34,-47.03 102.12,-35.6 92.99,-26.28"/>
<polygon fill="#63b8ff" stroke="#63b8ff" points="95.43,-23.78 85.93,-19.09 90.43,-28.68 95.43,-23.78"/>
</a>
</g>
</g>
</g>
</svg>
